<svg width="0" height="0" class="hidden">
  <symbol xmlns="http://www.w3.org/2000/svg" viewBox="0 0 2.92 5.09" xmlns:xlink="http://www.w3.org/1999/xlink"
  shape-rendering="geometricPrecision" text-rendering="geometricPrecision"
  image-rendering="optimizeQuality" fill-rule="evenodd" clip-rule="evenodd"
  id="five-1">
    <title>five</title>
    <desc>A color styled icon from Orion Icon Library.</desc>
    <path d="M2.92 0l-.29.63H1.12l-.33.67c.66.09 1.18.34 1.56.73.32.33.48.72.48 1.18 0 .26-.05.51-.16.73-.1.22-.24.41-.4.57-.16.16-.34.29-.54.38-.28.14-.57.2-.87.2-.3 0-.52-.05-.66-.15-.13-.1-.2-.21-.2-.33 0-.07.03-.13.08-.18.06-.06.13-.08.22-.08.06 0 .12.01.17.03.04.02.12.07.24.15.18.12.37.19.56.19.29 0 .54-.11.76-.33.22-.22.33-.48.33-.8 0-.3-.1-.58-.3-.85-.19-.26-.46-.46-.8-.6-.27-.12-.63-.18-1.09-.2L1.13 0h1.79z"
    fill-rule="nonzero" data-name="layer1" fill="#000"></path>
  </symbol>
  <symbol xmlns="http://www.w3.org/2000/svg" viewBox="0 0 2.35 3.54" xmlns:xlink="http://www.w3.org/1999/xlink"
  shape-rendering="geometricPrecision" text-rendering="geometricPrecision"
  image-rendering="optimizeQuality" fill-rule="evenodd" clip-rule="evenodd"
  id="four-1">
    <title>four</title>
    <desc>A color styled icon from Orion Icon Library.</desc>
    <path d="M2.35 2.26v.36h-.47v.92h-.42v-.92H0V2.3L1.6 0h.28v2.26h.47zm-.89 0V.54L.25 2.26h1.21z"
    fill-rule="nonzero" data-name="layer1" fill="#000"></path>
  </symbol>
  <symbol xmlns="http://www.w3.org/2000/svg" viewBox="0 0 1.66 2.74" xmlns:xlink="http://www.w3.org/1999/xlink"
  shape-rendering="geometricPrecision" text-rendering="geometricPrecision"
  image-rendering="optimizeQuality" fill-rule="evenodd" clip-rule="evenodd"
  id="nine-1">
    <title>nine</title>
    <desc>A color styled icon from Orion Icon Library.</desc>
    <path d="M.05 2.74v-.07c.17 0 .33-.04.47-.12.14-.07.28-.21.42-.4.13-.19.23-.4.28-.62-.2.13-.39.19-.55.19-.18 0-.34-.07-.47-.21-.13-.14-.2-.33-.2-.57C0 .71.07.51.2.33.36.11.56 0 .82 0c.22 0 .4.09.55.27.19.22.29.49.29.82a1.707 1.707 0 0 1-.82 1.44c-.21.14-.43.21-.68.21H.05zm1.2-1.35c.02-.17.04-.31.04-.41 0-.12-.02-.26-.07-.4a.732.732 0 0 0-.18-.34.381.381 0 0 0-.26-.11.37.37 0 0 0-.3.15C.39.39.35.54.35.74c0 .28.05.49.17.64.08.11.18.17.31.17.06 0 .13-.01.21-.04a.72.72 0 0 0 .21-.12z"
    fill-rule="nonzero" data-name="layer1" fill="#000"></path>
  </symbol>
  <symbol xmlns="http://www.w3.org/2000/svg" viewBox="0 0 0.24 0.62" xmlns:xlink="http://www.w3.org/1999/xlink"
  shape-rendering="geometricPrecision" text-rendering="geometricPrecision"
  image-rendering="optimizeQuality" fill-rule="evenodd" clip-rule="evenodd"
  id="one-1">
    <title>one</title>
    <desc>A color styled icon from Orion Icon Library.</desc>
    <path d="M0 .07L.15 0h.01v.51c0 .04 0 .06.01.07L.19.6h.05v.02H.01V.6h.06C.07.59.08.59.08.58.09.57.09.55.09.51V.18C.09.14.09.11.08.1.08.09.08.08.07.08.07.07.06.07.05.07S.03.08.01.09L0 .07z"
    fill-rule="nonzero" data-name="layer1" fill="#000"></path>
  </symbol>
  <symbol xmlns="http://www.w3.org/2000/svg" viewBox="0 0 7.01 11.35" xmlns:xlink="http://www.w3.org/1999/xlink"
  shape-rendering="geometricPrecision" text-rendering="geometricPrecision"
  image-rendering="optimizeQuality" fill-rule="evenodd" clip-rule="evenodd"
  id="seven-1">
    <title>seven</title>
    <desc>A color styled icon from Orion Icon Library.</desc>
    <path d="M1.06 0h5.95v.32L3.32 11.35H2.4L5.71 1.34H2.66c-.62 0-1.05.07-1.32.22-.45.25-.82.64-1.1 1.16L0 2.63 1.06 0z"
    fill-rule="nonzero" data-name="layer1" fill="#000"></path>
  </symbol>
  <symbol xmlns="http://www.w3.org/2000/svg" viewBox="0 0 49.2 80.86" xmlns:xlink="http://www.w3.org/1999/xlink"
  shape-rendering="geometricPrecision" text-rendering="geometricPrecision"
  image-rendering="optimizeQuality" fill-rule="evenodd" clip-rule="evenodd"
  id="six-1">
    <title>six</title>
    <desc>A color styled icon from Orion Icon Library.</desc>
    <path d="M47.67 0v2.24c-5.05.49-9.16 1.49-12.36 3-3.2 1.51-6.36 3.8-9.46 6.9a43.55 43.55 0 0 0-7.75 10.32c-2.03 3.81-3.74 8.32-5.12 13.53 5.5-3.74 11.01-5.63 16.56-5.63 5.32 0 9.91 2.14 13.81 6.44 3.9 4.28 5.85 9.79 5.85 16.52 0 6.49-1.97 12.43-5.91 17.79-4.75 6.49-11.02 9.75-18.83 9.75-5.32 0-9.85-1.77-13.55-5.28C3.63 68.71 0 59.83 0 48.92c0-6.96 1.39-13.59 4.2-19.87 2.78-6.28 6.78-11.85 11.96-16.71 5.2-4.85 10.16-8.12 14.91-9.81C35.82.84 40.23 0 44.33 0h3.34zM12 40.19c-.7 5.18-1.05 9.36-1.05 12.54 0 3.69.68 7.67 2.03 11.98 1.36 4.32 3.38 7.73 6.05 10.26 1.94 1.81 4.31 2.71 7.1 2.71 3.31 0 6.29-1.57 8.9-4.71 2.61-3.16 3.93-7.63 3.93-13.46 0-6.55-1.3-12.22-3.89-17.02-2.61-4.79-6.27-7.18-11.04-7.18-1.45 0-3.02.31-4.67.92-1.67.61-4.12 1.94-7.36 3.96z"
    fill-rule="nonzero" data-name="layer1" fill="#000"></path>
  </symbol>
  <symbol xmlns="http://www.w3.org/2000/svg" viewBox="0 0 1.04 1.89" xmlns:xlink="http://www.w3.org/1999/xlink"
  shape-rendering="geometricPrecision" text-rendering="geometricPrecision"
  image-rendering="optimizeQuality" fill-rule="evenodd" clip-rule="evenodd"
  id="three-1">
    <title>three</title>
    <desc>A color styled icon from Orion Icon Library.</desc>
    <path d="M.03.39C.08.26.15.17.22.1.3.03.4 0 .52 0c.15 0 .26.05.34.14.06.07.09.15.09.23C.95.5.86.64.7.78c.11.04.19.11.25.19s.09.18.09.29c0 .15-.05.29-.15.41-.13.15-.32.22-.57.22-.13 0-.21-.01-.25-.04-.05-.03-.07-.07-.07-.1s.01-.05.03-.07c.02-.02.05-.03.08-.03.02 0 .04 0 .07.01.01 0 .05.02.1.05.05.03.09.05.11.05.04.01.07.02.11.02.09 0 .17-.04.24-.11.07-.07.1-.16.1-.25a.537.537 0 0 0-.12-.32C.68 1.06.62 1.03.56 1A.522.522 0 0 0 .35.96H.31V.91C.38.9.45.88.52.84.59.8.64.74.68.69.71.63.72.56.72.49.72.4.7.32.64.27A.294.294 0 0 0 .42.18C.28.18.17.26.07.41L.03.39z"
    fill-rule="nonzero" data-name="layer1" fill="#000"></path>
  </symbol>
  <symbol xmlns="http://www.w3.org/2000/svg" viewBox="0 0 0.93 1.44" xmlns:xlink="http://www.w3.org/1999/xlink"
  shape-rendering="geometricPrecision" text-rendering="geometricPrecision"
  image-rendering="optimizeQuality" fill-rule="evenodd" clip-rule="evenodd"
  id="two-1">
    <title>two</title>
    <desc>A color styled icon from Orion Icon Library.</desc>
    <path d="M.93 1.16l-.1.28H0V1.4C.24 1.17.42.99.52.85.61.71.66.58.66.47.66.38.64.3.58.25A.246.246 0 0 0 .39.16.33.33 0 0 0 .2.22C.15.26.11.32.08.4H.04A.52.52 0 0 1 .17.1C.25.03.33 0 .44 0c.12 0 .21.04.29.11.08.07.11.16.11.26C.84.44.83.51.79.58.74.7.66.81.54.94c-.17.19-.27.3-.31.34h.36c.07 0 .12-.01.15-.01.03-.01.06-.02.09-.04.02-.01.04-.04.06-.07h.04z"
    fill-rule="nonzero" data-name="layer1" fill="#000"></path>
  </symbol>
  <symbol xmlns="http://www.w3.org/2000/svg" viewBox="0 0 1.33 2.13" xmlns:xlink="http://www.w3.org/1999/xlink"
  shape-rendering="geometricPrecision" text-rendering="geometricPrecision"
  image-rendering="optimizeQuality" fill-rule="evenodd" clip-rule="evenodd"
  id="zero-1">
    <title>zero</title>
    <desc>A color styled icon from Orion Icon Library.</desc>
    <path d="M0 1.08C0 .85.04.64.11.48.18.31.27.18.39.1.48.03.57 0 .67 0c.16 0 .3.08.42.24.16.2.24.47.24.81 0 .24-.04.44-.11.6-.07.17-.15.29-.26.37-.11.07-.21.11-.31.11-.19 0-.36-.12-.49-.35-.11-.19-.16-.43-.16-.7zm.3.04c0 .28.03.51.1.69.06.15.14.22.26.22.05 0 .11-.02.17-.07.06-.05.1-.13.13-.25.05-.17.07-.41.07-.73C1.03.75 1 .55.96.4A.632.632 0 0 0 .82.15.27.27 0 0 0 .67.1C.6.1.54.13.48.19.41.28.36.41.34.59.31.77.3.94.3 1.12z"
    fill-rule="nonzero" data-name="layer1" fill="#000"></path>
  </symbol>
  <symbol xmlns="http://www.w3.org/2000/svg" viewBox="0 0 1.94 3.49" xmlns:xlink="http://www.w3.org/1999/xlink"
  shape-rendering="geometricPrecision" text-rendering="geometricPrecision"
  image-rendering="optimizeQuality" fill-rule="evenodd" clip-rule="evenodd"
  id="eight-1">
    <title>eight</title>
    <desc>A color styled icon from Orion Icon Library.</desc>
    <path d="M.67 1.74c-.27-.22-.44-.4-.52-.53A.767.767 0 0 1 .04.8C.04.58.12.39.29.24.46.08.68 0 .96 0c.27 0 .49.07.66.22.16.15.25.31.25.5 0 .13-.05.26-.14.39-.09.13-.27.28-.55.46.29.22.48.4.57.53.13.17.19.34.19.53 0 .23-.09.44-.27.6-.18.17-.42.26-.71.26-.32 0-.57-.1-.75-.3A.793.793 0 0 1 0 2.66c0-.15.05-.29.15-.44.1-.15.27-.31.52-.48zm.39-.27c.2-.18.32-.32.38-.42.05-.11.08-.22.08-.36 0-.17-.05-.31-.15-.4-.1-.1-.23-.15-.4-.15S.66.19.56.28A.46.46 0 0 0 .4.63C.4.71.42.8.46.89c.05.08.11.16.19.24l.41.34zm-.27.36c-.14.12-.24.24-.31.38a.92.92 0 0 0-.1.44c0 .21.06.38.18.51.11.13.26.19.44.19s.32-.05.43-.15c.11-.1.16-.22.16-.37 0-.12-.03-.22-.09-.32-.12-.17-.36-.4-.71-.68z"
    fill-rule="nonzero" data-name="layer1" fill="#000"></path>
  </symbol>
</svg>