<svg width="0" height="0" class="hidden">
  <symbol xmlns="http://www.w3.org/2000/svg" viewBox="0 0 2.17 3.33" xmlns:xlink="http://www.w3.org/1999/xlink"
  shape-rendering="geometricPrecision" text-rendering="geometricPrecision"
  image-rendering="optimizeQuality" fill-rule="evenodd" clip-rule="evenodd"
  id="nine-1">
    <title>nine</title>
    <desc>A color styled icon from Orion Icon Library.</desc>
    <path d="M.07 2.52l.6-.07c.02.12.06.22.12.27.06.06.14.09.24.09.13 0 .24-.06.33-.17.09-.12.14-.37.17-.74a.75.75 0 0 1-.59.27c-.26 0-.48-.1-.66-.3C.09 1.67 0 1.42 0 1.1 0 .77.1.5.29.3c.2-.2.45-.3.75-.3.33 0 .6.13.82.38.21.26.31.68.31 1.27s-.11 1.02-.33 1.29c-.22.26-.5.39-.86.39-.25 0-.45-.07-.61-.2-.16-.14-.26-.34-.3-.61zm1.4-1.37c0-.2-.04-.36-.14-.47a.388.388 0 0 0-.32-.16C.9.52.8.56.73.65.65.75.61.89.61 1.1c0 .21.05.36.13.46.08.1.18.15.31.15.12 0 .22-.05.3-.14.08-.1.12-.24.12-.42z"
    fill-rule="nonzero" data-name="layer1" fill="#000"></path>
  </symbol>
  <symbol xmlns="http://www.w3.org/2000/svg" viewBox="0 0 0.34 0.79" xmlns:xlink="http://www.w3.org/1999/xlink"
  shape-rendering="geometricPrecision" text-rendering="geometricPrecision"
  image-rendering="optimizeQuality" fill-rule="evenodd" clip-rule="evenodd"
  id="one-1">
    <title>one</title>
    <desc>A color styled icon from Orion Icon Library.</desc>
    <path d="M.34.79H.19V.22C.14.27.07.31 0 .33V.2C.04.18.08.16.13.12.17.09.2.05.22 0h.12v.79z"
    fill-rule="nonzero" data-name="layer1" fill="#000"></path>
  </symbol>
  <symbol xmlns="http://www.w3.org/2000/svg" viewBox="0 0 8.78 13.21" xmlns:xlink="http://www.w3.org/1999/xlink"
  shape-rendering="geometricPrecision" text-rendering="geometricPrecision"
  image-rendering="optimizeQuality" fill-rule="evenodd" clip-rule="evenodd"
  id="seven-1">
    <title>seven</title>
    <desc>A color styled icon from Orion Icon Library.</desc>
    <path d="M0 2.37V0h8.78v1.87c-.73.71-1.46 1.73-2.21 3.06-.75 1.34-1.32 2.75-1.71 4.25-.4 1.5-.59 2.85-.58 4.03H1.81c.05-1.86.43-3.75 1.14-5.67.73-1.93 1.69-3.65 2.89-5.17H0z"
    fill-rule="nonzero" data-name="layer1" fill="#000"></path>
  </symbol>
  <symbol xmlns="http://www.w3.org/2000/svg" viewBox="0 0 63.94 98.04" xmlns:xlink="http://www.w3.org/1999/xlink"
  shape-rendering="geometricPrecision" text-rendering="geometricPrecision"
  image-rendering="optimizeQuality" fill-rule="evenodd" clip-rule="evenodd"
  id="six-1">
    <title>six</title>
    <desc>A color styled icon from Orion Icon Library.</desc>
    <path d="M62.2 23.99l-17.79 1.96c-.43-3.66-1.56-6.36-3.39-8.09-1.83-1.74-4.19-2.61-7.11-2.61-3.88 0-7.16 1.74-9.83 5.21-2.68 3.48-4.35 10.73-5.04 21.74 4.57-5.4 10.23-8.09 17.03-8.09 7.65 0 14.22 2.92 19.68 8.76 5.46 5.86 8.19 13.4 8.19 22.65 0 9.81-2.88 17.7-8.63 23.63-5.75 5.93-13.13 8.89-22.14 8.89-9.65 0-17.61-3.77-23.83-11.3C3.12 79.21 0 66.88 0 49.71c0-17.59 3.25-30.27 9.74-38.05C16.23 3.88 24.66 0 35.02 0c7.27 0 13.29 2.05 18.06 6.15 4.77 4.08 7.8 10.03 9.12 17.84zM20.6 64.07c0 5.97 1.38 10.59 4.12 13.84 2.74 3.26 5.87 4.88 9.41 4.88 3.39 0 6.22-1.33 8.49-3.99 2.26-2.67 3.39-7.04 3.39-13.1 0-6.25-1.22-10.82-3.65-13.74-2.46-2.9-5.49-4.34-9.14-4.34-3.55 0-6.51 1.38-8.97 4.17-2.43 2.76-3.65 6.86-3.65 12.28z"
    fill-rule="nonzero" data-name="layer1" fill="#000"></path>
  </symbol>
  <symbol xmlns="http://www.w3.org/2000/svg" viewBox="0 0 1.65 2.55" xmlns:xlink="http://www.w3.org/1999/xlink"
  shape-rendering="geometricPrecision" text-rendering="geometricPrecision"
  image-rendering="optimizeQuality" fill-rule="evenodd" clip-rule="evenodd"
  id="three-1">
    <title>three</title>
    <desc>A color styled icon from Orion Icon Library.</desc>
    <path d="M0 1.84l.46-.05c.02.12.06.21.12.27a.34.34 0 0 0 .48-.02c.07-.07.1-.18.1-.3s-.03-.22-.09-.29a.325.325 0 0 0-.24-.1c-.06 0-.13.01-.22.03L.66.99C.79 1 .89.97.96.91c.07-.06.1-.14.1-.24 0-.08-.02-.15-.07-.2A.272.272 0 0 0 .79.4C.71.4.64.42.58.48S.49.62.47.73L.03.66C.07.5.11.38.17.29.23.2.32.13.43.08A.91.91 0 0 1 .8 0c.24 0 .42.07.57.22.11.13.17.27.17.42 0 .22-.12.4-.36.53.14.03.26.1.34.2.09.11.13.24.13.39 0 .22-.08.4-.24.56a.84.84 0 0 1-.59.23c-.23 0-.41-.07-.56-.2A.746.746 0 0 1 0 1.84z"
    fill-rule="nonzero" data-name="layer1" fill="#000"></path>
  </symbol>
  <symbol xmlns="http://www.w3.org/2000/svg" viewBox="0 0 1.12 1.67" xmlns:xlink="http://www.w3.org/1999/xlink"
  shape-rendering="geometricPrecision" text-rendering="geometricPrecision"
  image-rendering="optimizeQuality" fill-rule="evenodd" clip-rule="evenodd"
  id="two-1">
    <title>two</title>
    <desc>A color styled icon from Orion Icon Library.</desc>
    <path d="M1.12 1.37v.3H0c.01-.11.05-.22.11-.32s.18-.23.36-.4C.61.82.7.73.73.68.77.61.8.55.8.49.8.41.78.36.74.32A.211.211 0 0 0 .58.26C.51.26.46.28.42.32.38.36.36.43.35.52L.04.49C.06.32.12.19.21.11.31.04.44 0 .59 0c.16 0 .29.04.38.13.1.09.15.2.15.33 0 .08-.02.15-.05.22-.02.06-.06.14-.12.21-.04.05-.11.12-.21.21-.1.09-.17.16-.19.19-.03.03-.05.06-.07.08h.64z"
    fill-rule="nonzero" data-name="layer1" fill="#000"></path>
  </symbol>
  <symbol xmlns="http://www.w3.org/2000/svg" viewBox="0 0 1.57 2.48" xmlns:xlink="http://www.w3.org/1999/xlink"
  shape-rendering="geometricPrecision" text-rendering="geometricPrecision"
  image-rendering="optimizeQuality" fill-rule="evenodd" clip-rule="evenodd"
  id="zero-1">
    <title>zero</title>
    <desc>A color styled icon from Orion Icon Library.</desc>
    <path d="M.79 0c.23 0 .41.08.55.25.15.2.23.53.23.99 0 .46-.08.79-.23.99a.67.67 0 0 1-.55.25c-.24 0-.43-.09-.57-.27C.07 2.03 0 1.7 0 1.24 0 .78.08.45.24.25.37.08.55 0 .79 0zm0 .39C.73.39.68.4.64.44.6.48.56.54.54.63.51.75.49.96.49 1.24c0 .29.01.48.04.59.03.1.07.18.11.21.04.04.09.05.15.05.05 0 .1-.01.14-.05.05-.04.08-.1.11-.19.03-.12.04-.32.04-.61 0-.28-.01-.48-.04-.59C1.01.55.98.48.93.44A.187.187 0 0 0 .79.39z"
    fill-rule="nonzero" data-name="layer1" fill="#000"></path>
  </symbol>
  <symbol xmlns="http://www.w3.org/2000/svg" viewBox="0 0 2.96 4.62" xmlns:xlink="http://www.w3.org/1999/xlink"
  shape-rendering="geometricPrecision" text-rendering="geometricPrecision"
  image-rendering="optimizeQuality" fill-rule="evenodd" clip-rule="evenodd"
  id="eight-1">
    <title>eight</title>
    <desc>A color styled icon from Orion Icon Library.</desc>
    <path d="M.75 2.1C.53 2 .37 1.88.27 1.71a.972.972 0 0 1-.16-.54C.11.83.23.55.47.33.7.11 1.03 0 1.47 0c.43 0 .76.11.99.33.24.22.36.5.36.84 0 .2-.06.39-.16.56-.11.16-.27.28-.46.37.25.1.44.25.57.44.13.2.19.42.19.67 0 .42-.13.76-.39 1.02-.27.26-.62.39-1.06.39-.41 0-.75-.11-1.03-.32C.16 4.04 0 3.69 0 3.25c0-.25.06-.47.18-.68.12-.2.31-.36.57-.47zm.18-.87c0 .17.05.31.15.4.1.1.23.15.39.15s.29-.05.39-.15c.1-.1.15-.23.15-.4s-.05-.3-.15-.4a.556.556 0 0 0-.38-.14.512.512 0 0 0-.55.54zM.85 3.17c0 .24.06.42.18.56.13.13.28.2.46.2s.33-.07.44-.19c.12-.13.18-.32.18-.57 0-.21-.06-.38-.18-.51a.583.583 0 0 0-.45-.19c-.21 0-.37.07-.47.22-.11.14-.16.3-.16.48z"
    fill-rule="nonzero" data-name="layer1" fill="#000"></path>
  </symbol>
  <symbol xmlns="http://www.w3.org/2000/svg" viewBox="0 0 4.48 6.69" xmlns:xlink="http://www.w3.org/1999/xlink"
  shape-rendering="geometricPrecision" text-rendering="geometricPrecision"
  image-rendering="optimizeQuality" fill-rule="evenodd" clip-rule="evenodd"
  id="five-1">
    <title>five</title>
    <desc>A color styled icon from Orion Icon Library.</desc>
    <path d="M0 4.86l1.27-.13c.04.29.15.52.32.68.18.17.39.26.62.26.27 0 .5-.11.68-.33.18-.22.28-.55.28-.98 0-.42-.09-.72-.28-.93a.89.89 0 0 0-.71-.31c-.37 0-.7.16-.99.48L.16 3.46.81 0h3.37v1.19h-2.4l-.21 1.13c.29-.14.58-.21.88-.21.56 0 1.04.2 1.44.62.39.41.59.95.59 1.6 0 .55-.16 1.04-.48 1.48-.43.58-1.03.88-1.8.88-.62 0-1.12-.17-1.5-.5-.39-.33-.62-.77-.7-1.33z"
    fill-rule="nonzero" data-name="layer1" fill="#000"></path>
  </symbol>
  <symbol xmlns="http://www.w3.org/2000/svg" viewBox="0 0 3.05 4.27" xmlns:xlink="http://www.w3.org/1999/xlink"
  shape-rendering="geometricPrecision" text-rendering="geometricPrecision"
  image-rendering="optimizeQuality" fill-rule="evenodd" clip-rule="evenodd"
  id="four-1">
    <title>four</title>
    <desc>A color styled icon from Orion Icon Library.</desc>
    <path d="M1.73 4.27v-.86H0V2.7L1.84 0h.68v2.7h.53v.71h-.53v.86h-.79zm0-1.57V1.25L.76 2.7h.97z"
    fill-rule="nonzero" data-name="layer1" fill="#000"></path>
  </symbol>
</svg>