<svg xmlns="http://www.w3.org/2000/svg"><symbol id="logo" viewBox="0 0 1378 1472.68"><g fill="#3E4095"><path d="M976.47 628.42l-103.89.39c-27.33-75.2-99.1-128.89-183.33-128.89-84.76 0-156.89 54.35-183.84 130.29l-103.89.4c29.69-132.29 147.24-231.09 287.73-231.09 139.71 0 256.74 97.71 287.22 228.9z"/><path d="M1378 626.88l-99.83.38C1244.2 330.4 993.49 99.88 689.25 99.88c-305.77 0-557.48 232.85-589.42 531.88L0 632.14C32.15 277.67 328.46 0 689.25 0c359 0 654.16 274.92 688.75 626.88zm-199.85 218.15l-99.86-.38c-32.14 186.86-194.09 328.98-389.04 328.98-195.99 0-358.62-143.63-389.54-331.95l-99.86-.39c31.57 243.57 238.65 431.65 489.4 431.65 249.46 0 455.7-186.16 488.9-427.91z"/></g><g fill="#66F"><path d="M1178.15 627.65l-99.86.38c-32.14-186.86-194.09-328.98-389.04-328.98-195.99 0-358.62 143.63-389.54 331.95l-99.86.38c31.57-243.56 238.65-431.65 489.4-431.65 249.46 0 455.7 186.17 488.9 427.92zM976.47 844.26l-103.89-.4c-27.33 75.21-99.1 128.89-183.33 128.89-84.76 0-156.89-54.35-183.84-130.29l-103.89-.4c29.69 132.3 147.24 231.1 287.73 231.1 139.71 0 256.74-97.71 287.22-228.9z"/><path d="M1378 845.79l-99.83-.38c-33.97 296.87-284.68 527.39-588.92 527.39-305.77 0-557.48-232.85-589.42-531.89L0 840.53c32.15 354.48 328.46 632.15 689.25 632.15 359 0 654.16-274.93 688.75-626.89z"/></g></symbol><symbol id="logo-full" viewBox="0 0 2298.17 533.56"><g fill="#3E4095"><path d="M353.78 227.68l-37.64.14c-9.9-27.24-35.9-46.69-66.42-46.69-30.71 0-56.84 19.69-66.6 47.2l-37.64.15c10.75-47.94 53.34-83.73 104.24-83.73 50.62 0 93.02 35.4 104.06 82.93z"/><path d="M499.26 227.12l-36.17.14C450.78 119.71 359.95 36.19 249.72 36.19c-110.78 0-201.98 84.36-213.55 192.7L0 229.03C11.65 100.6 119.01 0 249.72 0c130.07 0 237.01 99.61 249.54 227.12zm-72.41 79.04l-36.17-.14c-11.65 67.7-70.33 119.19-140.96 119.19-71.01 0-129.93-52.03-141.13-120.26l-36.18-.14c11.44 88.24 86.46 156.39 177.31 156.39 90.38 0 165.11-67.45 177.13-155.04z"/></g><g fill="#66F"><path d="M426.85 227.4l-36.17.14c-11.65-67.7-70.33-119.19-140.96-119.19-71.01 0-129.93 52.04-141.13 120.27l-36.18.14c11.44-88.25 86.46-156.39 177.31-156.39 90.38 0 165.11 67.44 177.13 155.03zm-73.07 78.48l-37.64-.14c-9.9 27.25-35.9 46.7-66.42 46.7-30.71 0-56.84-19.7-66.6-47.21l-37.64-.14c10.75 47.93 53.34 83.72 104.24 83.72 50.62 0 93.02-35.4 104.06-82.93z"/><path d="M499.26 306.44l-36.17-.14c-12.31 107.56-103.14 191.08-213.37 191.08-110.78 0-201.98-84.37-213.55-192.71L0 304.53c11.65 128.43 119.01 229.03 249.72 229.03 130.07 0 237.01-99.6 249.54-227.12z"/></g><path fill="#3E4095" d="M709.11 175.83v29.58h-48.75v153.1h-36.69v-153.1h-48.75v-29.58zm121.08 182.68l-40.36-71.18h-17.3v71.18h-36.69V175.83h68.67c14.15 0 26.21 2.49 36.17 7.46s17.43 11.69 22.4 20.15c4.98 8.47 7.47 17.93 7.47 28.4 0 12.04-3.49 22.9-10.48 32.59-6.99 9.68-17.38 16.35-31.19 20.02l43.77 74.06h-42.46zm-57.66-98.67h30.67c9.96 0 17.38-2.39 22.28-7.19 4.89-4.8 7.33-11.47 7.33-20.02 0-8.38-2.44-14.88-7.33-19.5-4.9-4.63-12.32-6.94-22.28-6.94h-30.67v53.65zm283.06-84.01v182.68h-36.69v-77.73h-78.37v77.73h-36.69V175.83h36.69v75.12h78.37v-75.12zm250.3 0v182.68h-36.69v-77.73h-78.37v77.73h-36.69V175.83h36.69v75.12h78.37v-75.12zm121.09 184.52c-17.13 0-32.85-4.02-47.18-12.04-14.33-8.03-25.69-19.15-34.07-33.37-8.39-14.22-12.58-30.32-12.58-48.29 0-17.8 4.19-33.81 12.58-48.03 8.38-14.22 19.74-25.34 34.07-33.36 14.33-8.03 30.05-12.04 47.18-12.04 17.3 0 33.06 4.01 47.3 12.04 14.24 8.02 25.52 19.14 33.81 33.36 8.3 14.22 12.45 30.23 12.45 48.03 0 17.97-4.15 34.07-12.45 48.29-8.29 14.22-19.61 25.34-33.94 33.37-14.32 8.02-30.05 12.04-47.17 12.04zm0-32.72c11 0 20.7-2.49 29.09-7.46s14.94-12.08 19.66-21.33c4.71-9.25 7.07-19.98 7.07-32.19 0-12.21-2.36-22.9-7.07-32.06-4.72-9.16-11.27-16.18-19.66-21.07-8.39-4.88-18.09-7.33-29.09-7.33-11.01 0-20.75 2.45-29.23 7.33-8.47 4.89-15.07 11.91-19.78 21.07-4.72 9.16-7.08 19.85-7.08 32.06s2.36 22.94 7.08 32.19c4.71 9.25 11.31 16.36 19.78 21.33 8.48 4.97 18.22 7.46 29.23 7.46zm183.99 32.72c-12.76 0-24.25-2.18-34.47-6.55-10.22-4.36-18.3-10.64-24.24-18.84-5.95-8.2-9-17.88-9.18-29.05h39.32c.52 7.5 3.19 13.43 7.99 17.8 4.81 4.36 11.4 6.54 19.79 6.54 8.56 0 15.29-2.05 20.18-6.15 4.89-4.1 7.34-9.47 7.34-16.1 0-5.41-1.66-9.86-4.98-13.35-3.32-3.49-7.47-6.23-12.45-8.24-4.98-2.01-11.84-4.23-20.58-6.67-11.88-3.49-21.53-6.94-28.95-10.34-7.43-3.4-13.81-8.55-19.14-15.44-5.33-6.9-7.99-16.1-7.99-27.61 0-10.82 2.7-20.24 8.12-28.27 5.42-8.03 13.02-14.18 22.8-18.45 9.79-4.28 20.97-6.41 33.55-6.41 18.87 0 34.21 4.58 46 13.74s18.3 21.94 19.53 38.34h-40.37c-.35-6.28-3.01-11.47-7.99-15.57s-11.58-6.15-19.79-6.15c-7.16 0-12.88 1.83-17.17 5.49-4.28 3.67-6.42 8.99-6.42 15.97 0 4.88 1.62 8.94 4.85 12.17 3.23 3.23 7.25 5.84 12.06 7.85 4.8 2 11.57 4.32 20.31 6.93 11.88 3.49 21.58 6.98 29.09 10.47 7.52 3.49 13.98 8.73 19.4 15.71 5.42 6.97 8.12 16.14 8.12 27.48 0 9.77-2.53 18.84-7.6 27.22-5.07 8.37-12.49 15.04-22.28 20.02-9.78 4.97-21.4 7.46-34.85 7.46zm220.94-184.52v29.58h-48.75v153.1h-36.69v-153.1h-48.75v-29.58zm63.43 0v182.68h-36.7V175.83zm192.63 182.68h-36.69l-83.08-125.36v125.36h-36.7V175.57h36.7l83.08 125.63V175.57h36.69zm163.55-127.72c-4.19-7.67-9.96-13.52-17.3-17.53-7.34-4.01-15.9-6.02-25.68-6.02-10.84 0-20.45 2.44-28.83 7.33-8.39 4.88-14.94 11.86-19.66 20.93-4.72 9.08-7.08 19.55-7.08 31.41 0 12.22 2.41 22.86 7.21 31.93 4.81 9.07 11.49 16.05 20.05 20.94 8.56 4.89 18.52 7.33 29.88 7.33 13.98 0 25.42-3.71 34.33-11.13 8.91-7.41 14.77-17.75 17.56-31.01h-62.9v-28h99.07v31.93c-2.44 12.73-7.69 24.51-15.72 35.33-8.04 10.82-18.39 19.5-31.06 26.04-12.67 6.54-26.86 9.81-42.59 9.81-17.65 0-33.59-3.96-47.83-11.9-14.24-7.94-25.43-18.98-33.55-33.11-8.13-14.13-12.19-30.19-12.19-48.16 0-17.97 4.06-34.07 12.19-48.29 8.12-14.22 19.31-25.29 33.55-33.23 14.24-7.94 30.09-11.91 47.57-11.91 20.61 0 38.53 5.01 53.72 15.05 15.21 10.03 25.69 24.12 31.46 42.26h-42.2z"/></symbol></svg>