<svg width="0" height="0" class="hidden">
  <symbol xmlns="http://www.w3.org/2000/svg" viewBox="0 0 2149 1483" xmlns:xlink="http://www.w3.org/1999/xlink"
  shape-rendering="geometricPrecision" text-rendering="geometricPrecision"
  image-rendering="optimizeQuality" fill-rule="evenodd" clip-rule="evenodd"
  id="logo-1">
    <title>logo</title>
    <desc>A color styled icon from Orion Icon Library.</desc>
    <path d="M1079 903H92c0-164 442-298 987-298s987 134 987 298h-987z"
    fill="#0f0" stroke="#373435" stroke-width="2" data-name="layer1" stroke-linejoin="round"
    stroke-linecap="round"></path>
    <path d="M95 896h142c49-424 407-753 842-753 437 0 796 332 842 760h142C2018 397 1594 0 1079 0 566 0 144 393 95 896zm285 1h143c46-267 277-470 556-470 280 0 512 206 556 475h143c-45-348-341-617-699-617-357 0-651 266-699 612zm288 1h149c39-107 141-184 262-184s224 78 262 186l149 1c-43-189-211-330-411-330S712 710 668 898z"
    fill="#006" data-name="layer2"></path>
    <path d="M361 1233c2 6 3 11 4 14s0 6-2 8c-3 1-7 2-12 3h-48c-6 0-10-1-14-1-3-1-5-2-6-4-1-1-2-2-3-5l-26-62H104l-25 61c0 2-1 4-3 5-1 2-3 3-6 4s-7 2-13 2H14c-6-1-9-2-11-4s-3-4-2-8c0-3 2-8 4-13l122-277c2-3 3-5 5-6 1-2 4-3 7-4 4-1 9-2 15-2h54c7 0 13 1 17 2s7 2 9 4c1 2 3 4 4 7l123 276zm-182-229h-1l-55 133h111l-55-133zm425 184c0 12-3 23-8 32-6 9-14 17-25 24-11 6-23 10-38 14-14 3-30 4-47 4-10 0-20 0-29-2-10-1-18-2-25-4-8-2-14-4-19-6s-8-4-11-5c-2-2-4-5-5-8-1-4-2-9-2-16 0-5 1-9 1-11 0-3 1-5 2-7s2-3 3-4h4c3 0 6 1 10 3 5 2 10 4 17 6 6 3 14 5 23 7 8 2 18 3 29 3 7 0 13 0 19-1 5-1 10-3 14-5s7-5 9-8 3-7 3-11c0-5-2-9-6-13-4-3-9-6-15-9-6-2-13-5-21-7s-16-5-24-7c-8-3-17-6-24-10-8-3-15-8-22-13-6-5-11-11-15-18s-5-16-5-26c0-11 2-20 7-29 5-8 13-16 22-22 10-6 22-10 36-14 14-3 29-5 46-5 9 0 17 1 25 2s16 2 22 3c7 2 12 3 17 5 4 1 8 3 10 4s3 2 4 4c1 1 1 2 2 4 0 2 1 4 1 6v20c0 3-1 5-2 7 0 1-1 2-3 3-1 1-2 1-4 1s-5-1-9-3c-4-1-8-3-14-5s-13-4-21-5c-7-2-16-3-26-3-7 0-13 1-18 2s-9 2-13 5c-3 2-6 4-7 7-2 3-3 6-3 9 0 5 2 9 6 12 4 4 9 7 16 9 6 3 13 5 21 8 8 2 17 4 25 7 8 2 16 6 24 9 8 4 16 8 22 13s12 11 15 19c4 7 6 15 6 25zm312 61c0 2 0 3-1 4-2 1-4 2-7 3s-7 1-12 2h-40c-5 0-10-1-13-2-3 0-6-1-8-3-2-1-3-3-5-5l-91-113v114c0 1 0 3-2 4-1 1-3 2-6 3s-7 1-12 2h-37c-5-1-9-1-12-2s-5-2-6-3-2-3-2-4V932c0-2 1-3 2-4 1-2 3-3 6-4s7-1 12-2h37c5 1 9 1 12 2s5 2 6 4c2 1 2 2 2 4v189l81-86c2-2 4-4 6-5 2-2 4-3 8-4 3 0 7-1 12-1 5-1 12-1 19-1 8 0 14 0 20 1 5 0 9 1 12 1 3 1 5 2 7 4 1 1 2 2 2 4s-1 5-3 8c-1 2-4 5-7 8l-80 72 93 112c3 3 4 6 6 9 1 2 1 4 1 6zm274-278v12c-1 4-2 6-3 8s-2 4-4 4c-1 1-3 2-4 2h-130v84h121c2 0 4 0 5 1 2 1 3 2 4 4s2 5 3 8v24c-1 3-2 6-3 8s-2 3-4 4c-1 1-3 2-5 2h-121v116c0 1-1 3-2 4-1 2-4 3-7 4-3 0-7 1-12 2h-39c-6-1-10-2-13-2-3-1-5-2-6-4-2-1-2-3-2-4V965c0-7 2-12 7-15 4-3 10-5 17-5h187c1 0 3 1 4 1 2 1 3 3 4 5s2 5 3 8v12zm330 168c0 18-3 35-9 50-7 15-16 28-28 39-13 11-28 19-47 25s-41 9-66 9c-24 0-46-2-64-8-18-5-33-13-44-23-12-10-21-22-27-37-5-15-8-32-8-51 0-18 3-35 9-50s16-28 28-39c13-11 28-19 47-25s40-9 66-9c24 0 45 3 63 8s33 13 45 23 20 22 26 37 9 32 9 51zm-79 2c0-10-1-20-4-29-2-9-5-16-11-23-5-7-11-12-20-16-8-3-19-5-32-5-12 0-22 2-30 5-9 3-16 8-22 14-5 7-9 14-12 23s-4 19-4 31c0 10 1 20 3 29s6 17 11 23c5 7 12 12 21 16 8 3 19 5 32 5 11 0 21-2 30-5s16-8 21-14c6-7 10-14 13-23 2-9 4-19 4-31zm316-87c0 6 0 10-1 14 0 4-1 7-2 9 0 2-2 3-3 4s-3 1-5 1-3 0-6-1c-2 0-4-1-6-2-3 0-6-1-9-1-3-1-6-1-10-1s-9 1-13 2-9 3-13 6c-5 3-10 7-15 12s-10 11-16 18v134c0 1 0 3-2 4-1 1-3 2-6 3s-7 1-12 2h-37c-5-1-9-1-12-2s-5-2-6-3-2-3-2-4v-215c0-2 1-3 2-4 1-2 2-3 5-4 3 0 6-1 10-1 5-1 10-1 16-1 7 0 12 0 16 1 5 0 8 1 10 1 3 1 4 2 5 4 1 1 2 2 2 4v26c7-8 14-14 20-19 7-5 13-10 18-13 6-3 12-5 17-6 6-1 12-2 18-2h8c3 1 7 1 10 2 3 0 6 1 8 2 3 0 5 1 6 2s2 2 2 3c1 1 1 2 2 4v7c1 3 1 8 1 14zm133 194c0 2-1 3-2 5-2 1-4 2-7 3-3 0-7 1-12 2h-39c-6-1-10-2-13-2-3-1-5-2-6-3-2-2-2-3-2-5V954c0-2 0-3 2-5 1-1 3-2 6-3 3 0 8-1 13-2h39c5 1 9 2 12 2 3 1 5 2 7 3 1 2 2 3 2 5v294zm243-20c0 7 0 12-1 16s-3 6-5 8c-2 1-4 3-8 4-3 1-8 2-12 3-5 1-10 2-16 2-6 1-11 1-17 1-15 0-29-2-40-5s-20-8-28-14c-7-6-13-14-16-24-4-9-5-21-5-34v-110h-33c-4 0-7-2-9-6s-4-10-4-19c0-4 1-8 1-12 1-3 2-5 3-7s2-3 4-4c1-1 3-1 5-1h33v-49c0-1 0-3 1-4 2-1 4-2 7-3 2-1 7-2 12-2s11-1 18-1c8 0 14 1 19 1s9 1 12 2 5 2 6 3 2 3 2 4v49h59c2 0 4 0 6 1 1 1 2 2 3 4s2 4 3 7v12c0 9-1 15-3 19s-5 6-9 6h-59v101c0 12 2 20 7 26s13 9 25 9c4 0 8 0 11-1 3 0 6-1 9-2 2 0 4-1 6-2 2 0 3-1 5-1 1 0 2 1 3 1 1 1 2 2 3 4 1 1 1 4 2 7v11zm-443 241c1-1 1-3 2-4 0-1 1-2 1-4 1-1 2-3 3-5 0-2 1-5 2-8l4-17c1-5 2-9 3-14 1-4 3-9 4-15 1-4 3-9 5-14 1-5 3-10 5-15s3-11 5-17c2-5 4-11 5-17v-2h-2c-1 0-3 0-4-1-1 0-2-1-3-2s-1-2-2-3v-4c0-3 0-5 1-7s2-4 3-5 3-2 4-2c2-1 3-1 4-2h4c1-1 2-1 2-2 1-2 2-4 2-5 1-2 2-4 3-5 1-2 2-3 3-4 2-1 3-1 6-1 1 0 3 0 4 1l3 3c1 2 2 3 3 5 0 1 1 3 2 4 7 0 14 1 19 1 6 1 10 2 13 2 6 1 11 3 17 5 5 2 10 4 15 8 4 3 8 7 11 11 3 5 4 10 4 16 0 3 0 6-1 9l-1 4c0 3-1 6-3 9-2 2-4 5-7 7-6 6-14 11-21 15-8 4-16 8-25 11-9 2-17 5-26 7s-18 3-26 5l-4 1c-1 0-2 0-3 1-1 6-2 10-3 14s-2 7-3 11c0 3-1 7-2 11 0 3-1 7-2 11-1 2-2 3-2 5-1 2-3 4-4 6-1 1-3 3-5 4-1 1-3 2-5 2-1 0-3 0-4-1 0-1-1-2-2-3s-1-2-1-4c-1-1-1-2-1-4v-2zm45-82c-1 0-1 1-1 2s-1 1-1 2v3c-1 0-1 1-1 1s0 1 1 1h2c2 0 3 0 5-1 1 0 3 0 5-1 2 0 4 0 6-1 4-1 10-2 15-4 6-1 11-3 17-5l15-6c5-3 9-5 13-8s8-5 10-8c3-3 4-6 4-9 0-2 0-3-1-5 0-1-1-3-2-4-2-3-5-6-8-8s-7-4-11-5-8-2-12-2h-25c-2 1-5 1-7 1-2 1-3 1-4 1 0 1-1 1-1 2 0 0-1 0-1 1s-1 3-2 6l-3 9c-2 3-3 7-4 10-1 4-3 7-4 11l-3 9c-1 3-2 6-2 8zm110 73c4-17 8-33 13-50 4-17 9-33 13-50 1-3 1-5 2-7 0-2 1-4 1-6 1-2 1-4 1-6s1-4 1-6-1-3-1-5v-5c0-1 0-3 1-5 1-5 2-8 4-10s5-4 10-4c1 0 3 1 4 1 2 0 4 1 5 1 2 1 4 1 5 1 2 1 4 1 6 1h4c2 0 3 0 5-1h23c3 0 6 0 9 1 3 0 6 1 9 2s6 3 9 4c3 2 5 4 7 7 2 2 4 5 5 8 0 2 1 4 1 5v4c0 5-1 9-3 14-3 5-6 9-11 14-4 4-9 8-15 12-2 1-5 3-8 5-3 1-6 3-9 4-3 2-6 3-8 5-2 1-4 2-5 3 3 1 5 2 8 3 3 2 5 4 8 5 3 2 5 5 8 7 3 3 6 7 9 10 3 4 6 9 9 15 3 5 7 11 10 19 1 1 2 3 2 5s-1 3-1 5c-1 2-2 3-3 4-1 2-2 3-4 3-1 1-3 1-5 1s-4 0-6-2-3-5-5-8c-1-3-3-7-5-11-1-3-3-7-6-11-3-5-6-9-9-13s-6-7-10-10c-4-2-7-5-11-6-4-2-8-3-12-3h-1c-3 0-5 0-7 1-1 0-3 0-5 1-2-1-4-2-5-4s-1-4-1-6v-2l-9 35c-1 1-1 3-2 5 0 2-1 4-1 6-1 2-2 5-2 7-1 3-2 5-2 7-1 2-2 4-2 6-1 2-1 3-1 4-1 2-3 4-4 5-2 1-3 1-5 1-4 0-6-1-7-3s-2-4-2-7v-3c0-1 1-2 1-3zm54-125c0 1-1 3-2 6 0 3-1 6-2 10-1 3-3 7-4 11s-2 8-3 13c-1 4-3 8-4 12-1 3-2 7-3 10 2-2 4-4 7-5 3-2 6-3 10-5 3-1 6-2 11-4 4-2 8-4 13-6 5-3 9-6 14-8 4-3 9-6 12-9 4-3 7-6 9-9 3-3 4-6 4-9s-1-5-3-6c-2-2-5-3-7-4-3-1-6-1-10-2h-10c-5 0-10 0-16 1-5 1-10 2-16 4zm104 83c1-6 3-12 5-17l9-18c4-6 8-12 12-17 4-6 8-11 13-17l15-15c5-4 10-9 15-13l6-3c2 0 4-1 7-1 2 0 4 1 6 1 2 1 4 2 5 4l2 2c1 1 2 1 2 1s1 0 1-1l1-1v-1c1-1 1-1 2-1 1-1 3-1 4-1 2-1 4-1 6-1 3 0 6 1 9 2s6 3 8 5c6 6 10 12 13 19 3 8 5 15 5 24 0 7-1 16-4 24-2 8-4 16-8 23-3 7-8 14-13 20-4 7-10 12-16 18-6 5-12 9-19 13s-14 7-21 9-15 3-22 3-14-1-19-3c-6-2-11-5-15-9-3-4-6-9-8-14s-4-11-4-18c0-3 1-6 1-9 0-2 1-5 2-8zm18 7c0 4-1 7-1 10 0 4 1 8 2 11 2 3 4 6 6 8 3 2 6 4 10 5s8 1 12 1c5 0 10 0 16-2 5-2 10-4 16-7 5-3 10-7 14-11 5-5 9-10 14-15 4-6 7-12 10-18 3-7 6-14 8-21 1-3 1-6 2-9v-8c0-4 0-8-1-12s-3-8-5-11-5-5-9-7-8-3-13-3c-1 0-2 1-2 1 0 1-1 2-1 3-1 0-1 1-2 2 0 1-1 2-1 3-1 0-2 1-3 1-2 1-3 1-5 1-1 0-2 0-3-1-1 0-2-1-3-2 0-1-1-1-1-1l-1-1c-1 0-2 1-3 1-1 1-2 2-3 2l-3 3c-1 1-2 2-3 2-5 5-10 11-15 17s-9 13-14 19c-4 7-8 13-11 20s-5 13-7 19z"
    fill-rule="nonzero" data-name="layer3" fill="#000"></path>
  </symbol>
</svg>