<?xml version="1.0" standalone="no"?>
<!DOCTYPE svg PUBLIC "-//W3C//DTD SVG 20010904//EN"
 "http://www.w3.org/TR/2001/REC-SVG-20010904/DTD/svg10.dtd">
<svg version="1.0" xmlns="http://www.w3.org/2000/svg"
 width="1473.000000pt" height="1473.000000pt" viewBox="0 0 1473.000000 1473.000000"
 preserveAspectRatio="xMidYMid meet">
<metadata>
Created by potrace 1.11, written by Peter Selinger 2001-2013
</metadata>
<g transform="translate(0.000000,1473.000000) scale(0.100000,-0.100000)"
fill="#000000" stroke="none">
<path d="M7098 14725 c-2 -1 -59 -5 -128 -9 -69 -4 -145 -8 -170 -10 -109 -9
-191 -17 -207 -20 -10 -2 -49 -7 -88 -11 -38 -4 -77 -9 -85 -10 -8 -2 -51 -8
-95 -15 -69 -10 -207 -33 -270 -46 -11 -2 -33 -7 -50 -9 -284 -49 -780 -194
-1125 -328 -415 -161 -853 -381 -1195 -602 -99 -64 -251 -166 -290 -195 -22
-16 -47 -33 -55 -37 -8 -3 -17 -9 -20 -12 -3 -4 -32 -26 -65 -50 -508 -374
-1015 -877 -1406 -1396 -165 -219 -397 -570 -480 -725 -13 -25 -29 -52 -36
-61 -7 -8 -68 -125 -136 -260 -214 -423 -375 -834 -491 -1254 -20 -71 -41
-146 -46 -165 -10 -32 -56 -229 -66 -275 -47 -232 -60 -312 -93 -555 -10 -69
-14 -102 -27 -227 -3 -30 0 -43 8 -44 27 -2 982 2 984 4 1 1 5 23 8 50 3 26 8
67 11 91 3 24 8 54 10 66 2 12 7 48 11 79 3 31 8 58 9 61 2 3 6 26 10 50 3 25
8 52 10 60 2 8 7 31 10 50 11 69 78 347 112 469 211 755 576 1469 1072 2096
52 66 97 122 100 125 4 3 29 32 56 65 113 135 389 416 530 540 44 39 89 78
100 89 131 120 530 414 710 523 11 7 63 38 115 69 249 151 581 315 850 419 80
31 154 60 165 65 47 20 308 104 360 116 6 1 51 13 100 27 81 23 237 62 290 72
11 3 40 9 65 14 107 23 313 58 395 67 22 2 49 6 60 8 17 3 57 8 200 22 265 26
836 25 1085 -1 45 -5 91 -10 178 -21 89 -10 251 -34 329 -49 43 -8 89 -16 103
-19 48 -8 216 -47 315 -73 55 -14 105 -26 110 -27 39 -9 125 -36 280 -88 493
-164 953 -388 1385 -674 209 -138 356 -247 566 -422 385 -320 805 -788 1094
-1222 46 -69 91 -137 101 -152 95 -140 286 -496 391 -727 16 -36 35 -79 43
-95 29 -64 136 -346 173 -456 64 -187 145 -481 166 -594 3 -15 7 -34 10 -44 3
-9 7 -28 10 -42 2 -14 11 -59 19 -100 9 -41 18 -95 22 -120 3 -25 8 -52 10
-60 4 -16 9 -46 21 -145 4 -33 9 -63 10 -67 1 -5 2 -18 3 -30 l1 -23 312 2
c172 1 398 2 501 2 l189 1 -6 48 c-4 26 -9 65 -11 87 -3 22 -7 56 -10 75 -3
19 -7 55 -10 80 -78 596 -287 1321 -548 1894 -109 241 -290 581 -419 786 -33
52 -65 104 -71 114 -22 36 -134 203 -158 237 -54 74 -234 315 -244 325 -5 6
-23 29 -40 50 -30 38 -144 174 -155 184 -3 3 -38 43 -79 90 -148 169 -500 511
-689 669 -80 67 -78 65 -142 118 -138 112 -435 324 -640 455 -342 219 -849
472 -1220 608 -63 23 -124 46 -135 51 -71 32 -447 145 -661 198 -117 30 -428
94 -509 106 -23 3 -51 7 -64 10 -13 2 -42 7 -65 9 -22 3 -59 8 -81 11 -22 2
-53 7 -70 10 -27 4 -92 11 -180 20 -16 2 -64 6 -105 9 -41 4 -106 9 -145 12
-69 5 -692 13 -697 9z"/>
<path d="M7089 12726 c-2 -2 -51 -7 -108 -10 -90 -6 -219 -20 -376 -42 -22 -3
-85 -14 -140 -25 -55 -11 -112 -22 -126 -24 -61 -9 -364 -91 -501 -136 -512
-168 -1013 -430 -1433 -748 -114 -86 -104 -78 -250 -202 -158 -134 -441 -419
-553 -557 -19 -23 -43 -51 -54 -64 -48 -56 -186 -241 -259 -348 -151 -221
-317 -517 -419 -745 -12 -27 -32 -72 -45 -100 -56 -126 -132 -341 -210 -595
-33 -110 -104 -423 -120 -530 -3 -25 -8 -54 -9 -65 -2 -11 -6 -43 -10 -70 l-7
-51 497 3 c273 1 498 4 500 5 1 2 9 39 17 83 95 511 287 990 572 1430 60 93
255 359 274 375 3 3 31 34 61 70 367 434 954 856 1475 1062 28 11 64 26 80 33
74 33 393 132 482 149 11 3 37 9 59 15 44 12 231 48 284 55 19 2 62 8 95 11
33 4 69 9 79 11 128 24 695 24 848 -1 12 -2 64 -9 113 -15 463 -57 991 -239
1420 -488 111 -64 287 -177 320 -204 5 -5 35 -27 65 -49 58 -42 116 -87 134
-104 6 -6 27 -23 46 -39 478 -391 898 -970 1137 -1571 68 -170 151 -434 178
-563 2 -9 8 -37 14 -62 5 -25 12 -58 15 -75 14 -74 17 -90 21 -93 1 -2 182 -3
401 -2 220 1 443 2 497 2 l98 0 -5 41 c-8 53 -24 147 -39 222 -3 11 -7 38 -11
60 -28 157 -127 509 -198 700 -191 515 -453 981 -787 1398 -110 137 -136 168
-235 274 -585 629 -1292 1082 -2101 1346 -132 43 -376 110 -447 122 -18 4 -73
15 -123 25 -49 11 -137 26 -195 34 -104 15 -135 19 -240 31 -30 3 -77 8 -105
11 -55 6 -670 15 -676 10z"/>
<path d="M7277 10734 c-1 -1 -49 -5 -107 -8 -178 -11 -329 -34 -500 -76 -47
-11 -94 -22 -104 -25 -11 -2 -56 -16 -100 -31 -482 -158 -897 -421 -1241 -786
-109 -116 -127 -136 -212 -250 -233 -309 -399 -649 -499 -1022 -13 -50 -24
-96 -24 -103 0 -8 130 -11 517 -9 l516 2 37 90 c101 246 239 452 429 643 279
279 658 477 1041 542 175 30 559 32 643 4 6 -2 28 -6 47 -9 50 -7 215 -51 280
-75 127 -45 165 -62 258 -111 206 -110 360 -227 516 -391 160 -168 313 -403
389 -597 l32 -83 513 3 c282 1 515 5 518 10 11 17 -67 271 -136 443 -80 202
-253 506 -367 650 -5 6 -24 30 -42 55 -87 114 -287 325 -402 423 -313 269
-742 499 -1124 602 -149 41 -238 58 -450 90 -61 8 -421 24 -428 19z"/>
<path d="M492 6322 c-20 -3 -22 -8 -18 -45 3 -23 8 -67 11 -97 3 -30 8 -71 10
-90 8 -57 24 -172 30 -215 6 -37 32 -184 41 -230 2 -11 7 -33 9 -50 13 -72 59
-272 96 -415 168 -647 487 -1387 824 -1910 77 -120 220 -336 225 -340 3 -3 33
-43 67 -90 289 -403 718 -866 1098 -1185 44 -37 91 -77 105 -88 61 -53 253
-200 370 -284 152 -108 459 -307 520 -336 8 -4 53 -30 100 -57 47 -27 182 -99
300 -158 552 -278 1132 -478 1732 -597 166 -33 404 -71 493 -80 39 -4 77 -9
86 -10 8 -2 55 -6 105 -10 49 -4 97 -9 107 -11 129 -24 875 -24 1117 1 19 1
67 6 105 9 39 4 88 8 110 11 22 3 60 7 85 10 101 12 141 18 280 41 80 14 199
36 265 50 158 33 154 32 173 38 9 3 28 7 42 10 124 21 628 177 845 261 280
109 754 331 896 421 21 13 41 24 43 24 11 0 257 153 411 255 146 97 365 254
430 308 11 9 61 49 110 89 214 173 310 261 550 503 384 386 685 767 981 1240
135 217 290 508 427 805 76 166 178 426 257 660 25 76 128 421 134 453 3 12
14 60 25 107 27 112 58 255 76 355 8 44 16 89 19 100 2 11 6 41 10 66 4 25 9
57 11 70 9 53 35 257 39 307 l4 52 -101 0 c-56 1 -279 2 -495 3 -217 1 -395 0
-397 -3 -2 -3 -6 -23 -9 -45 -18 -134 -37 -258 -46 -306 -6 -30 -13 -67 -15
-84 -3 -16 -8 -41 -10 -55 -3 -14 -7 -35 -9 -47 -14 -69 -93 -378 -127 -493
-50 -165 -133 -401 -195 -546 -25 -60 -47 -113 -48 -119 -10 -34 -164 -351
-222 -455 -23 -41 -54 -97 -69 -125 -171 -307 -470 -721 -744 -1029 -50 -56
-396 -402 -451 -451 -311 -276 -640 -515 -975 -709 -82 -47 -157 -91 -165 -96
-36 -21 -349 -174 -433 -211 -179 -79 -441 -178 -612 -229 -254 -77 -380 -109
-610 -155 -171 -35 -385 -68 -520 -80 -38 -4 -81 -8 -95 -10 -85 -13 -284 -20
-545 -19 -343 0 -457 7 -802 50 -84 10 -327 54 -471 84 -196 42 -690 188 -777
230 -11 5 -63 26 -115 46 -52 20 -117 46 -145 58 -27 12 -66 29 -85 36 -79 31
-484 242 -604 314 -325 196 -675 449 -886 642 -19 17 -64 58 -100 90 -87 79
-297 290 -392 394 -556 613 -986 1354 -1250 2155 -28 86 -75 243 -83 275 -2 8
-17 71 -35 140 -26 107 -60 264 -76 350 -2 14 -9 48 -14 75 -12 66 -31 195
-45 310 -4 33 -8 61 -9 62 -3 3 -950 8 -974 5z"/>
<path d="M2479 6309 c-7 -4 -9 -22 -4 -50 4 -24 9 -55 12 -69 130 -789 401
-1457 850 -2098 52 -73 100 -140 108 -150 7 -9 35 -44 61 -77 192 -241 492
-548 704 -721 19 -16 37 -32 40 -35 5 -6 272 -206 330 -246 61 -43 251 -163
258 -163 4 0 13 -5 20 -12 33 -33 372 -207 563 -288 268 -115 532 -203 814
-270 134 -32 423 -84 535 -95 36 -4 76 -8 90 -10 183 -27 876 -27 1020 0 8 1
40 6 70 9 55 7 174 24 220 32 14 2 41 7 60 10 30 5 96 18 200 40 14 2 52 12
85 20 33 9 67 17 75 19 86 19 381 110 470 145 25 10 88 35 140 56 133 52 202
84 382 174 140 70 184 94 253 137 11 7 47 28 80 48 207 124 461 308 664 483
128 110 305 283 425 416 39 43 76 84 81 90 27 28 156 189 211 261 245 324 475
725 621 1085 18 47 38 94 43 105 26 56 136 387 155 465 2 8 13 50 25 92 11 43
23 85 25 95 30 144 66 327 70 358 3 22 8 57 11 78 l6 37 -501 0 c-394 0 -501
-3 -502 -12 0 -7 -2 -20 -4 -28 -29 -147 -41 -200 -62 -280 -118 -451 -324
-897 -590 -1278 -119 -170 -201 -271 -348 -430 -375 -406 -866 -749 -1365
-955 -332 -136 -714 -239 -1020 -273 -30 -3 -66 -7 -80 -10 -150 -24 -692 -24
-840 0 -14 3 -50 7 -80 10 -30 4 -84 11 -120 17 -36 6 -74 13 -85 14 -49 8
-257 56 -325 75 -41 12 -88 25 -105 29 -57 15 -260 88 -370 134 -134 55 -316
145 -450 222 -96 55 -355 224 -380 248 -7 7 -25 21 -41 32 -231 165 -553 487
-760 760 -253 335 -454 709 -590 1100 -25 72 -99 320 -108 365 -3 14 -18 85
-33 158 -24 117 -29 132 -47 133 -163 4 -959 3 -967 -2z"/>
<path d="M4494 6298 c-3 -5 -3 -21 2 -36 4 -15 8 -31 9 -37 10 -45 51 -179 79
-256 113 -317 270 -598 479 -862 103 -131 334 -361 464 -465 253 -200 528
-355 824 -466 163 -60 437 -130 594 -150 64 -8 166 -19 215 -22 61 -4 356 -4
405 0 109 10 182 17 201 21 12 3 50 9 85 14 387 59 822 234 1158 465 40 28 81
56 89 61 60 39 240 194 337 291 288 286 515 630 666 1005 23 59 78 215 84 239
2 8 13 49 24 90 12 41 21 79 21 85 0 7 -167 11 -518 13 l-518 2 -19 -53 c-37
-104 -174 -355 -235 -430 -213 -263 -357 -394 -580 -529 -124 -75 -303 -157
-405 -185 -182 -51 -174 -49 -330 -73 -90 -13 -164 -17 -295 -15 -96 2 -184 5
-195 8 -11 3 -40 8 -65 11 -221 30 -476 120 -680 240 -269 158 -483 359 -653
616 -67 101 -172 305 -197 383 -6 20 -15 37 -18 38 -46 7 -1024 4 -1028 -3z"/>
</g>
</svg>
