<?xml version="1.0" encoding="UTF-8"?>
<!DOCTYPE svg PUBLIC "-//W3C//DTD SVG 1.1//EN" "http://www.w3.org/Graphics/SVG/1.1/DTD/svg11.dtd">
<!-- Creator: CorelDRAW X8 -->
<svg xmlns="http://www.w3.org/2000/svg" xml:space="preserve" width="459px" height="458px" version="1.1" style="shape-rendering:geometricPrecision; text-rendering:geometricPrecision; image-rendering:optimizeQuality; fill-rule:evenodd; clip-rule:evenodd"
viewBox="0 0 223 222"
 xmlns:xlink="http://www.w3.org/1999/xlink">
 <defs>
  <style type="text/css">
   <![CDATA[
    .str3 {stroke:#003399;stroke-width:4.04675}
    .str4 {stroke:#33CC33;stroke-width:4.04675}
    .str2 {stroke:#003399;stroke-width:0.437084}
    .str1 {stroke:#33CC33;stroke-width:0.437084}
    .str0 {stroke:white;stroke-width:0.437084}
    .fil3 {fill:none}
    .fil2 {fill:#003399}
    .fil1 {fill:#33CC33}
    .fil0 {fill:white}
   ]]>
  </style>
 </defs>
 <g id="Layer_x0020_1">
  <metadata id="CorelCorpID_0Corel-Layer"/>
  <g id="logo">
   <g id="top">
    <path class="fil0 str0" d="M188 159l1 0c27,-35 25,-86 -7,-118 -33,-32 -84,-34 -119,-6l11 10 0 0c0,0 0,0 0,0l0 0c29,-22 71,-20 98,6 26,26 28,68 6,97l0 0 0 1 10 10zm-104 -103l11 11 1 -1 0 0c17,-11 40,-9 55,6 14,15 16,38 6,55l0 0 -1 0 11 11c16,-23 14,-55 -6,-76 -21,-21 -53,-23 -77,-6zm22 22l39 38c5,-10 3,-24 -6,-33 -8,-9 -22,-10 -33,-5z"/>
    <path class="fil1 str1" d="M199 170l-11 -11c28,-35 26,-86 -6,-118 -33,-32 -84,-34 -119,-6l-11 -11c41,-34 102,-32 140,6 38,38 41,99 7,140zm-21 -21l-11 -11c16,-23 14,-55 -6,-76 -21,-21 -53,-23 -77,-6l-10 -11c29,-22 71,-20 97,7 27,26 29,68 7,97zm-22 -22l-11 -11c5,-10 3,-24 -6,-33 -9,-9 -22,-10 -33,-5l-11 -11c17,-11 40,-9 55,6 15,15 17,37 6,54z"/>
   </g>
   <g id="bottom">
    <path class="fil0" d="M159 188l-10 -11c-29,22 -71,20 -97,-6 -27,-27 -29,-69 -7,-98l11 11c-17,23 -15,55 6,76 21,21 53,23 76,6l10 10 -121 -122 -1 0 9 8c-28,36 -26,87 6,119 32,32 83,35 118,7zm-32 -32l-11 -11c-10,5 -24,3 -33,-6 -9,-9 -10,-23 -5,-33l-11 -11c-11,17 -9,40 6,54 15,15 37,17 54,7z"/>
    <path class="fil2 str2" d="M170 198l-11 -10c-35,28 -86,25 -118,-7 -32,-32 -34,-83 -6,-119l-11 -10c-34,41 -32,102 6,140 38,38 99,40 140,6zm-21 -21l-11 -11c-23,17 -55,15 -76,-6 -21,-21 -23,-53 -6,-76l-11 -11c-22,29 -20,71 7,98 26,26 68,28 97,6zm-22 -21l-11 -11c-10,5 -24,3 -33,-6 -9,-9 -10,-23 -5,-33l-11 -11c-11,17 -9,40 6,54 15,15 37,17 54,7z"/>
   </g>
   <g id="triangle">
    <g>
     <path class="fil2" d="M83 101l48 -10 -11 47 -37 -37zm33 21l0 0zm0 0l0 0zm-17 -17l0 0 0 0zm0 0l0 0 0 0zm0 0l17 17 -17 -17zm17 17l0 0 0 0zm-24 -18l0 0 0 0zm25 25l-25 -25 25 25zm-25 -25l0 0 0 0zm23 -2l6 -2 0 0 -6 2zm-16 3l0 0 0 0zm20 23l0 0zm0 0l0 0zm-26 -26l0 0 0 0 0 0 0 0zm0 0l0 0 0 0 0 0zm0 0l0 0 0 0zm0 0l0 0 0 0zm0 0l0 0 0 0zm0 0l0 0 0 0zm0 0l0 0 0 0zm0 0l1 2 -1 -2zm26 26l0 0 0 0zm-26 -26l0 0 0 0 0 0 0 0zm0 0l23 -5 -23 5zm-10 -1l0 0 0 0zm37 37l-37 -37 37 37zm-37 -37l0 0 0 0zm33 -4l11 -2 0 0 -11 2zm0 0l-23 5 0 0 0 0 0 0 0 0 23 -5zm-23 5l0 0 23 -5 -23 5zm28 -2l0 0 -5 22 0 0 0 0 5 -22zm-27 4l31 -6 -8 29 2 1 -2 -1 0 2 -25 -25 2 0zm-1 -2l0 0 0 0 0 0zm34 -7l0 0 -8 33 0 0 0 0 8 -33zm-34 7l0 0 0 0 0 0 0 0z"/>
     <path id="1" class="fil3 str3" d="M83 101l48 -10 -11 47 -37 -37zm33 21l0 0zm0 0l0 0zm-17 -17l0 0 0 0zm0 0l0 0 0 0zm0 0l17 17 -17 -17zm17 17l0 0 0 0zm-24 -18l0 0 0 0zm25 25l-25 -25 25 25zm-25 -25l0 0 0 0zm23 -2l6 -2 0 0 -6 2zm-16 3l0 0 0 0zm20 23l0 0zm0 0l0 0zm-26 -26l0 0 0 0 0 0 0 0zm0 0l0 0 0 0m0 0l0 0 0 0zm0 0l0 0m0 0l0 0m0 0l0 0 0 0zm0 0l0 0m0 0l1 2 -1 -2zm26 26l0 0 0 0zm-26 -26l0 0 0 0 0 0m0 0l23 -5 -23 5zm-10 -1l0 0 0 0zm37 37l-37 -37 37 37zm-37 -37l0 0 0 0zm33 -4l11 -2 0 0 -11 2zm0 0l-23 5 0 0 0 0 0 0 0 0m0 0l0 0 23 -5m5 3l0 0 -5 22 0 0 0 0 5 -22zm-27 4l31 -6 -8 29 2 1 -2 -1 0 2 -25 -25 2 0zm-1 -2l0 0 0 0 0 0zm34 -7l0 0 -8 33 0 0 0 0 8 -33zm-34 7l0 0 0 0 0 0 0 0z"/>
    </g>
    <g>
     <path class="fil1" d="M92 104l33 -6 -8 31 -25 -25zm24 18l0 0zm0 0l0 0zm-17 -17l0 0 0 0 0 0 0 0zm0 0l0 0 0 0 0 0zm0 0l0 0 0 0zm0 0l0 0 0 0zm0 0l0 0 0 0zm0 0l0 0 0 0zm0 0l0 0 0 0zm0 0l17 17 -17 -17zm17 17l0 0 0 0zm-17 -17l0 0 0 0 0 0 0 0zm0 0l0 0 0 0 0 0 0 0zm0 0l16 -3 -16 3zm-7 -1l0 0 0 0zm25 25l-25 -25 25 25zm-25 -25l0 0 0 0zm23 -2l6 -2 0 0 -5 22 0 0 0 0 5 -22 0 0 -6 2zm0 0l-16 3 0 0 0 0 0 0 0 0 16 -3zm-16 3l0 0 16 -3 -16 3zm0 0l0 0 0 0 0 0 0 0z"/>
     <path id="1" class="fil3 str4" d="M92 104l33 -6 -8 31 -25 -25zm24 18l0 0zm0 0l0 0zm-17 -17l0 0 0 0 0 0 0 0zm0 0l0 0 0 0m0 0l0 0 0 0zm0 0l0 0m0 0l0 0m0 0l0 0 0 0zm0 0l0 0m0 0l17 17 -17 -17zm17 17l0 0 0 0zm-17 -17l0 0 0 0 0 0m0 0l0 0 0 0 0 0m0 0l16 -3 -16 3zm-7 -1l0 0 0 0zm25 25l-25 -25 25 25zm-25 -25l0 0 0 0zm23 -2l6 -2 0 0 -5 22 0 0 0 0 5 -22 0 0 -6 2zm0 0l-16 3 0 0 0 0 0 0 0 0m0 0l0 0 16 -3m-16 3l0 0 0 0 0 0 0 0z"/>
    </g>
   </g>
  </g>
 </g>
</svg>
