<?xml version="1.0" encoding="UTF-8"?>
<!DOCTYPE svg PUBLIC "-//W3C//DTD SVG 1.1//EN" "http://www.w3.org/Graphics/SVG/1.1/DTD/svg11.dtd">
<!-- Creator: CorelDRAW -->
<svg xmlns="http://www.w3.org/2000/svg" xml:space="preserve" width="349px" height="375px" version="1.1" style="shape-rendering:geometricPrecision; text-rendering:geometricPrecision; image-rendering:optimizeQuality; fill-rule:evenodd; clip-rule:evenodd"
viewBox="0 0 38.56 41.48"
 xmlns:xlink="http://www.w3.org/1999/xlink">
 <defs>
  <style type="text/css">
    .fil0 {fill:#02569B}
    .fil1 {fill:#16B9FD}
    .fil2 {fill:#FEFEFE}
  </style>
 </defs>
 <g id="AngularDart">
  <metadata id="CorelCorpID_0Corel-Layer"/>
  <g id="_1848898381776">
   <path class="fil0" d="M19.32 4.67l12 26.97 -4.53 0.02 -2.41 -6.03 -5.18 -0.03 0.1 15.88 15.18 -8.37c1.3,-0.77 1.21,-0.24 1.36,-2.07 0.3,-3.65 1.01,-8.17 1.37,-12l1.35 -12.18c-0.71,-0.35 -1.56,-0.61 -2.38,-0.88 -0.79,-0.26 -1.53,-0.57 -2.4,-0.86l-14.48 -5.12 0.02 4.67z"/>
   <path class="fil1" d="M19.3 41.48l-0.1 -15.88 -4.97 0.02 -2.51 6.05 -4.45 -0.02 5.93 -13.49c0.78,-1.74 5.59,-12.93 6.12,-13.49l-0.02 -4.67c-0.72,0.07 -8.63,3.04 -9.59,3.37 -1.7,0.57 -3.13,1.14 -4.8,1.71l-4.91 1.78c0,2.24 2.39,20.17 2.72,24.18 0.15,1.77 0.02,1.29 1.25,2.01l6.6 3.68c0.77,0.43 1.39,0.77 2.11,1.15 0.45,0.22 0.62,0.38 1.09,0.63l5.53 2.97z"/>
   <path class="fil2" d="M19.4 13.88l3.33 7.96 -3.53 0.01 -3.4 -0.03 3.47 -8.31 0.13 0.37zm-0.2 11.72l5.18 0.03 2.41 6.03 4.53 -0.02 -12 -26.97c-0.53,0.56 -5.34,11.75 -6.12,13.49l-5.93 13.49 4.45 0.02 2.51 -6.05 4.97 -0.02z"/>
   <path class="fil0" d="M19.2 21.85l3.53 -0.01 -3.33 -7.96c-0.47,1.54 0.1,5.93 -0.2,7.97z"/>
   <path class="fil1" d="M19.2 21.85c0.3,-2.04 -0.27,-6.43 0.2,-7.97l-0.13 -0.37 -3.47 8.31 3.4 0.03z"/>
  </g>
 </g>
</svg>
