<?xml version="1.0" encoding="UTF-8"?>
<!DOCTYPE svg PUBLIC "-//W3C//DTD SVG 1.1//EN" "http://www.w3.org/Graphics/SVG/1.1/DTD/svg11.dtd">
<!-- Creator: CorelDRAW -->
<svg xmlns="http://www.w3.org/2000/svg" xml:space="preserve" width="375px" height="375px" version="1.1" style="shape-rendering:geometricPrecision; text-rendering:geometricPrecision; image-rendering:optimizeQuality; fill-rule:evenodd; clip-rule:evenodd"
viewBox="0 0 358.2 358.2"
 xmlns:xlink="http://www.w3.org/1999/xlink">
 <defs>
  <style type="text/css">
    .fil0 {fill:#563D7C}
    .fil1 {fill:white}
  </style>
 </defs>
 <g id="Bootstrap">
  <metadata id="CorelCorpID_0Corel-Layer"/>
  <g id="_1848781004464">
   <path class="fil0" d="M358.2 298.5c0,32.84 -26.86,59.7 -59.7,59.7l-238.8 0c-32.83,0 -59.7,-26.86 -59.7,-59.7l0 -238.8c0,-32.83 26.87,-59.7 59.7,-59.7l238.8 0c32.84,0 59.7,26.87 59.7,59.7l0 238.8z"/>
   <path class="fil1" d="M97.34 77.84l101.54 0c18.74,0 33.78,4.28 45.07,12.88 11.3,8.6 16.98,21.54 16.98,38.92 0,10.54 -2.58,19.55 -7.73,27.05 -5.15,7.49 -12.53,13.34 -22.12,17.44l0 0.58c12.87,2.75 22.65,8.84 29.26,18.27 6.61,9.48 9.95,21.3 9.95,35.58 0,8.19 -1.46,15.86 -4.39,22.95 -2.93,7.14 -7.49,13.28 -13.75,18.43 -6.27,5.15 -14.23,9.25 -24,12.29 -9.78,3.05 -21.37,4.57 -34.83,4.57l-95.98 0 0 -208.96zm36.58 87.51l59.7 0c8.78,0 16.09,-2.46 21.95,-7.49 5.85,-5.04 8.77,-12.18 8.77,-21.54 0,-10.54 -2.63,-17.97 -7.9,-22.25 -5.26,-4.27 -12.87,-6.43 -22.82,-6.43l-59.7 0 0 57.71zm0 91.6l64.67 0c11.12,0 19.79,-2.87 25.87,-8.67 6.15,-5.73 9.25,-13.93 9.25,-24.46 0,-10.36 -3.04,-18.26 -9.25,-23.88 -6.2,-5.62 -14.75,-8.31 -25.87,-8.31l-64.67 0 0 65.32z"/>
  </g>
 </g>
</svg>
