<?xml version="1.0" encoding="UTF-8"?>
<!DOCTYPE svg PUBLIC "-//W3C//DTD SVG 1.1//EN" "http://www.w3.org/Graphics/SVG/1.1/DTD/svg11.dtd">
<!-- Creator: CorelDRAW -->
<svg xmlns="http://www.w3.org/2000/svg" xml:space="preserve" width="371px" height="375px" version="1.1" style="shape-rendering:geometricPrecision; text-rendering:geometricPrecision; image-rendering:optimizeQuality; fill-rule:evenodd; clip-rule:evenodd"
viewBox="0 0 60.45 61.07"
 xmlns:xlink="http://www.w3.org/1999/xlink">
 <defs>
  <style type="text/css">
   <![CDATA[
    .fil0 {fill:#0074C8}
    .fil3 {fill:#00A7E0}
    .fil1 {fill:#00C3B3}
    .fil2 {fill:#21D2C4}
   ]]>
  </style>
 </defs>
 <g id="Dartlang">
  <metadata id="CorelCorpID_0Corel-Layer"/>
  <g id="_1848898396624">
   <path class="fil0" d="M12.53 12.89l0.1 -0.05c0.39,0.07 4.57,4.44 4.94,4.81l33.11 33.11c0.4,0.39 1,0.86 1.24,1.3l0.03 0c0.65,-1.57 1.36,-3.06 2.04,-4.6 1.53,-3.47 1.62,-2.7 0.89,-4.71 -1.2,-3.27 -2.33,-6.59 -3.5,-9.92 -1.7,-4.83 -3.61,-10.02 -5.22,-14.83 -0.29,-0.87 -0.59,-1.67 -0.88,-2.48 -0.28,-0.79 -0.65,-1.72 -0.87,-2.54l-0.04 0.02c-0.58,-0.04 -1.15,-0.24 -1.81,-0.28 -1.91,-0.11 -3.98,-0.07 -5.9,-0.07l-24.11 -0.12 -0.02 0.36z"/>
   <path class="fil1" d="M13 44.58c0.43,0.03 18.62,6.54 19.71,6.91 3.77,1.27 7.41,2.65 11.08,3.91 0.54,0.18 0.68,0.01 1.16,-0.2 0.97,-0.42 6.53,-2.83 6.97,-3.14 -0.24,-0.44 -0.84,-0.91 -1.24,-1.3l-33.11 -33.11c-0.37,-0.37 -4.55,-4.74 -4.94,-4.81l0 24.09c0,3.42 -0.14,4.26 0.37,7.65z"/>
   <path class="fil2" d="M51.95 52.06l-0.03 0c-0.44,0.31 -6,2.72 -6.97,3.14 -0.48,0.21 -0.62,0.38 -1.16,0.2 -3.67,-1.26 -7.31,-2.64 -11.08,-3.91 -1.09,-0.37 -19.28,-6.88 -19.71,-6.91 -0.01,0.45 0.63,1.96 0.82,2.4 1.17,2.73 2.19,3.55 4.26,5.63l8.21 8.21c0.33,0.27 0.73,0.16 1.48,0.16l21.41 0.09 1.42 -4.48c0.23,-0.72 1.35,-4.06 1.35,-4.53z"/>
   <path class="fil3" d="M51.95 52.06c1.92,-0.5 6.9,-2.33 8.48,-2.7l0 -19.6c0,-1.08 0.03,-2.19 0.01,-3.27 -0.01,-0.44 0.02,-0.37 -0.21,-0.61l-4.5 -4.49c-1.8,-1.8 -4.69,-5.08 -6.66,-6.4 -1.14,-0.76 -3.09,-1.72 -4.66,-2.01 0.22,0.82 0.59,1.75 0.87,2.54 0.29,0.81 0.59,1.61 0.88,2.48 1.61,4.81 3.52,10 5.22,14.83 1.17,3.33 2.3,6.65 3.5,9.92 0.73,2.01 0.64,1.24 -0.89,4.71 -0.68,1.54 -1.39,3.03 -2.04,4.6z"/>
   <path class="fil0" d="M13 44.58c-0.51,-3.39 -0.37,-4.23 -0.37,-7.65l0 -24.09 -0.1 0.05c-0.21,0.06 -1.28,1.82 -1.42,2.03l-9.96 15.08c-0.78,1.16 -1.15,1.38 -1.15,2.39 -0.01,1.65 0.72,2.67 1.71,3.66l0.86 0.95c0.58,0.63 1.2,1.2 1.81,1.81 1.22,1.22 2.37,2.37 3.59,3.59 0.87,0.87 0.56,0.66 2.3,1.23l2.73 0.95z"/>
   <path class="fil1" d="M12.55 12.53l24.11 0.12c1.92,0 3.99,-0.04 5.9,0.07 0.66,0.04 1.23,0.24 1.81,0.28l-1.35 -3.94c-0.2,-0.62 -0.34,-0.63 -0.76,-1.05l-4.49 -4.4c-1.58,-1.58 -3.1,-3.6 -5.37,-3.61 -1.1,-0.01 -1.4,0.36 -2.53,1.11l-15.08 9.96c-0.36,0.25 -0.72,0.49 -1.09,0.73 -0.37,0.25 -0.72,0.53 -1.15,0.73z"/>
  </g>
 </g>
</svg>
