<?xml version="1.0" encoding="UTF-8"?>
<!DOCTYPE svg PUBLIC "-//W3C//DTD SVG 1.1//EN" "http://www.w3.org/Graphics/SVG/1.1/DTD/svg11.dtd">
<!-- Creator: CorelDRAW -->
<svg xmlns="http://www.w3.org/2000/svg" xml:space="preserve" width="75px" height="175px" version="1.1" style="shape-rendering:geometricPrecision; text-rendering:geometricPrecision; image-rendering:optimizeQuality; fill-rule:evenodd; clip-rule:evenodd"
viewBox="0 0 52.36 71.29"
 xmlns:xlink="http://www.w3.org/1999/xlink">
 <defs>
  <style type="text/css">
    .fil1 {fill:#0D100F}
    .fil0 {fill:#6AD9E6}
    .fil2 {fill:#F6D3A3}
  </style>
 </defs>
 <g id="Golang">
  <metadata id="CorelCorpID_0Corel-Layer"/>
  <path class="fil0" d="M29.94 23.16c0.13,0.33 -0.18,1.05 -0.29,1.29 -0.39,0.84 -1.13,1.34 -2.02,0.84 -0.4,-0.22 -0.62,-0.61 -0.92,-0.73 -0.65,1.02 -1.4,1.24 -2.41,0.71 -0.52,-0.27 -0.65,-0.55 -0.68,-1.2 -0.03,-0.51 -0.03,-1.29 0.04,-1.77l0.03 -0.71c-1.02,0.11 -1.47,0.18 -2.13,-0.44 -0.39,-0.37 -0.85,-1.06 -0.64,-1.88 0.18,-0.71 0.71,-1.2 1.1,-1.53 0.66,-0.58 1.22,-0.73 1.6,-1.03 0,-0.18 -0.05,-0.41 0.07,-0.57 -0.08,-1.26 2.97,-2.38 4.96,-0.94 0.31,0.23 0.97,0.94 0.82,1.55 0.72,0.35 0.85,0.2 1.49,0.82 0.91,0.88 1.19,2.26 0.48,3.26 -0.57,0.79 -1.18,0.67 -1.43,0.84 0.01,0.33 0.15,1.22 -0.07,1.49zm4.47 -18.61c3.4,-0.43 7.16,1.51 7.87,5.16 0.38,2 -0.23,3.9 -1.28,5.17 -0.97,1.19 -2.24,1.98 -4.3,2.27 -3.8,0.53 -7.41,-1.88 -7.95,-5.17 -0.62,-3.76 1.64,-6.92 5.66,-7.43zm-16.91 -0.69c1.94,-0.31 4.05,0.36 5.31,1.22 4.94,3.37 3.45,10.41 -2.59,11.34 -3.98,0.61 -7.52,-1.68 -8.15,-4.94 -0.37,-1.9 0.24,-3.94 1.19,-5.23 0.97,-1.3 2.32,-2.1 4.24,-2.39zm30.36 19.35c0.33,-8.12 -1.05,-15.96 -8.48,-19.88 -1.54,-0.81 -3.34,-1.45 -5.23,-1.89 -2.09,-0.49 -3.94,-0.68 -6.14,-0.94 -3.48,-0.43 -9.29,0.29 -12.48,1.52 -3.47,1.33 -5.92,3.56 -7.61,6.59 -0.74,1.35 -1.4,3.62 -1.78,5.33 -1.45,6.42 -1.08,13.58 -1.21,20.11 -0.1,4.53 -0.67,8.94 -0.6,13.57 0.07,4.43 0.65,8.47 2.23,12.03 1.5,3.42 3.78,5.63 6.91,7.3 6.27,3.34 16.74,3.72 23.84,1.04 3.56,-1.35 6.35,-3.44 8,-6.2 4.3,-7.2 1.74,-17.34 1.74,-25.18 0,-4.6 0.63,-8.86 0.81,-13.4zm-38.91 -16.92c0.15,-0.13 0.31,-0.36 0.43,-0.5l1.27 -1.34c-0.32,-0.3 -1.31,-0.68 -1.76,-0.78 -3.98,-0.94 -6.89,3.35 -5.49,6.34 0.27,0.59 0.63,1.01 1.13,1.43 0.24,0.2 1.23,0.84 1.6,0.85 0.18,-0.56 0.31,-1.07 0.5,-1.61l0.56 -1.55c-0.4,-0.52 -1,-0.98 -0.35,-2.12 0.64,-1.15 1.54,-0.74 2.11,-0.72zm33.93 -1.04c0.1,0.17 0.41,0.41 0.57,0.58 0.43,0.44 1.17,1.31 1.49,1.8 0.51,-0.08 0.85,-0.46 1.64,-0.36 0.55,0.07 0.92,0.44 1.15,0.89 0.78,1.53 -0.65,2.13 -1.12,2.5 0,0.03 0.72,2.31 0.78,2.43 0.4,-0.01 1.37,-0.62 1.68,-0.86 1.75,-1.39 1.84,-3.58 0.73,-5.4 -1.04,-1.71 -3.02,-2.7 -5.12,-2.32 -0.42,0.08 -1.58,0.44 -1.8,0.74z"/>
  <path class="fil1" d="M39.05 67.75c0.11,-0.17 -0.04,-0.03 0.2,-0.16 0.91,-0.49 1.81,-0.9 2.71,-1.62 0.17,-0.13 0.78,-0.62 0.93,-0.66 0.04,0 2.84,1.64 3.19,3.12 0.12,0.5 -0.05,1.47 -0.51,1.55 -0.4,-0.84 -0.1,-0.42 -0.72,-1.34 -0.09,-0.14 -0.34,-0.59 -0.41,-0.63 -0.44,-0.25 -0.26,0.33 -0.15,0.51 0.52,0.86 1.17,1.45 0.68,2 -0.95,1.05 -2.51,-0.45 -3.34,-1.16 -1.06,-0.91 -1.28,-1.09 -2.45,-1.55l-0.13 -0.06zm-15.39 -45.45c-0.07,0.48 -0.07,1.26 -0.04,1.77 0.03,0.65 0.16,0.93 0.68,1.2 1.01,0.53 1.76,0.31 2.41,-0.71 0.3,0.12 0.52,0.51 0.92,0.73 0.89,0.5 1.63,0 2.02,-0.84 0.11,-0.24 0.42,-0.96 0.29,-1.28 0.22,-0.28 0.08,-1.17 0.07,-1.5 0.25,-0.17 0.86,-0.05 1.43,-0.84 0.71,-1 0.43,-2.38 -0.48,-3.26 -0.64,-0.62 -0.77,-0.47 -1.49,-0.82 0.15,-0.61 -0.51,-1.32 -0.82,-1.55 -1.99,-1.44 -5.04,-0.32 -4.96,0.94 -0.12,0.16 -0.07,0.39 -0.07,0.57 -0.38,0.3 -0.94,0.45 -1.6,1.03 -0.39,0.34 -0.92,0.82 -1.1,1.53 -0.21,0.82 0.25,1.51 0.65,1.88 0.65,0.62 1.1,0.55 2.12,0.44l-0.03 0.71zm6.01 -0.42c-0.13,0.42 0.12,1.06 -0.28,2.14 -0.46,1.24 -1.21,1.41 -2.1,0.48 -0.39,-0.4 -0.29,-0.33 -0.28,-1 0.02,-0.84 -0.04,-1.54 -0.1,-2.34l0 -0.35c0.33,0.03 2.03,0.6 2.63,0.77 0.02,0.04 0.03,0.1 0.04,0.11 0,0.01 0.01,0.03 0.01,0.04l0.05 0.1c0.01,0.01 0.02,0.03 0.03,0.05zm-3.3 -1.1c0.03,0.8 0.33,3.05 -0.02,3.63 -0.72,1.17 -2.04,0.75 -2.31,-0.04 -0.08,-1.07 0.04,-1.9 0.08,-2.94 0.38,-0.22 1.67,-0.75 2.25,-0.65zm2.86 -3.39c0.28,-0.16 0.03,-0.31 0.59,-0.1 1.39,0.52 2.16,2.34 1.18,3.45 -1.15,1.3 -3,-0.58 -5.04,-0.36 -1.68,0.19 -3.24,1.93 -4.45,0.09 -0.79,-1.2 0.48,-2.29 1.35,-2.86 0.3,-0.19 0.67,-0.5 1.06,-0.5 0.16,0.58 1.85,0.99 2.48,1.04 0.58,0.05 2.56,-0.02 2.83,-0.76zm5.18 -12.84c-4.02,0.51 -6.28,3.67 -5.66,7.43 0.54,3.29 4.15,5.7 7.95,5.17 2.06,-0.29 3.33,-1.08 4.3,-2.27 1.05,-1.27 1.66,-3.17 1.28,-5.17 -0.71,-3.64 -4.47,-5.59 -7.87,-5.16zm-16.91 -0.69c-1.92,0.29 -3.27,1.09 -4.24,2.39 -0.95,1.29 -1.56,3.34 -1.19,5.23 0.63,3.26 4.17,5.55 8.15,4.94 6.04,-0.93 7.53,-7.97 2.59,-11.34 -1.25,-0.86 -3.37,-1.53 -5.31,-1.22zm20.82 5.25c1.22,-0.38 2.26,0.68 2.43,1.62 0.22,1.25 -0.53,2.31 -1.51,2.56 -2.42,0.61 -3.55,-3.35 -0.92,-4.18zm-2.68 7.73c3.85,0 6.45,-2.5 6.35,-6.23 -0.18,-7.22 -13.01,-8.18 -12.94,0.4 0.03,3.45 3.2,5.83 6.59,5.83zm-13.78 -8.29c1.2,-0.27 2.1,0.76 2.25,1.73 0.19,1.19 -0.55,2.29 -1.54,2.48 -1.3,0.25 -2.17,-0.77 -2.31,-1.76 -0.19,-1.26 0.56,-2.22 1.6,-2.45zm-4.22 -4.32c-0.98,0.2 -1.4,0.22 -2.34,0.74 -3.31,1.84 -4.46,7.47 -0.24,10.08 4.7,2.9 11.46,-0.24 10.17,-6 -0.36,-1.59 -1.38,-2.79 -2.63,-3.65 -1.02,-0.7 -3.27,-1.52 -4.96,-1.17zm34.72 33.18l0 0.88c-0.02,0.26 -0.07,0.09 -0.29,0.44l-0.31 0.83c-0.15,0.28 -0.15,0.25 -0.4,0.39l-0.27 0.13c-0.25,0.11 -0.65,0.12 -0.92,0.03l-0.08 -0.03c-0.32,-0.11 -0.61,-0.17 -0.89,-0.31l-0.71 -0.43c-0.01,-0.01 -0.03,-0.01 -0.04,-0.02 -0.01,-0.01 -0.02,-0.02 -0.03,-0.02l-0.8 -0.29c0,0.32 -0.06,0.7 0.01,1.02 0.07,0.33 0.02,-0.09 0.09,0.25 0.04,0.15 0.01,0.5 0.01,0.67 0.01,0.46 0.08,0.25 0.12,0.57 0.05,0.4 -0.01,1.64 0.1,1.96 0.04,0.12 0.04,-0.07 0.07,0.26l0.11 2.28c0.13,0.36 0.19,6.06 0.1,6.72 -0.03,0.25 0,0.86 -0.05,1.09 -0.04,0.2 -0.1,0.24 -0.11,0.46 0,0.22 0.02,0.34 -0.02,0.55l-0.1 0.69c-0.09,0.27 -0.07,0.79 -0.27,1.39 -0.01,0.01 -0.01,0.02 -0.02,0.04 -0.07,0.24 -0.06,0.51 -0.15,0.76 -0.15,0.43 -0.18,0.86 -0.37,1.28 0,0.02 -0.01,0.03 -0.02,0.04l-0.31 0.83c-0.03,0.08 -0.03,0.11 -0.08,0.21l-0.33 0.69c0,0.02 -0.01,0.03 -0.02,0.04 0,0.01 -0.01,0.03 -0.02,0.04l-0.47 0.9c0,0.01 -0.01,0.02 -0.02,0.03l-0.38 0.65c0,0.01 -0.01,0.03 -0.02,0.04l-0.08 0.14c-0.26,0.43 -0.42,0.48 -0.62,0.81l-0.96 1.09c-0.01,0.01 -0.02,0.03 -0.02,0.04l-0.11 0.12c-0.01,0 -0.02,0.01 -0.03,0.02 -0.04,0.04 -0.06,0.05 -0.1,0.08 -0.01,0.01 -0.05,0.04 -0.06,0.05 -0.09,0.06 -0.02,0.05 -0.15,0.08l0 0.12c0.2,0.05 0.21,0.11 0.36,0.21l0.7 0.5c0.02,0.01 0.05,0.04 0.07,0.05 0.37,0.26 0.71,0.53 1.01,0.86l0.41 0.39c0.01,0.02 0.04,0.05 0.05,0.06l0.31 0.49c0.18,0.33 0.35,0.64 0.35,1.03 0,0.26 0.03,0.62 -0.06,0.86l-0.51 0.86c-0.01,0 -0.02,0.02 -0.03,0.02l-0.24 0.16c-0.13,0.05 -0.09,0.04 -0.25,0.04 -0.02,0.21 -0.13,0.24 -0.28,0.4l-0.14 0.14c-0.18,0.14 -0.38,0.2 -0.61,0.2 -0.94,0 -1.17,-0.04 -1.87,-0.52l-0.68 -0.52c-0.01,-0.01 -0.02,-0.01 -0.03,-0.02l-0.24 -0.22c-0.02,-0.02 -0.02,-0.07 -0.26,-0.2 -0.14,-0.08 -0.04,0.01 -0.17,-0.11l-0.94 -0.77c-0.01,-0.01 -0.05,-0.04 -0.06,-0.05l-0.2 -0.15c-0.08,-0.05 -0.09,-0.05 -0.18,-0.1 -0.02,-0.01 -0.06,-0.03 -0.08,-0.04 -0.01,-0.01 -0.02,-0.02 -0.04,-0.02l-0.51 -0.22c-1.06,-0.35 -0.73,-0.17 -1.39,-0.01l-1.29 0.42c-0.02,0.01 -0.06,0.03 -0.08,0.04 -0.41,0.16 -0.64,0.18 -0.95,0.3 -0.38,0.15 -0.77,0.16 -1.15,0.28l-1.57 0.37c-0.23,0.03 -0.33,0.04 -0.57,0.05 -0.48,0.04 -0.1,0.07 -0.46,0.12 -0.32,0.04 -0.82,0 -1.09,0.1 -0.12,0.04 0.06,0.05 -0.27,0.07 -0.07,0.01 -0.21,0 -0.29,0 -0.25,0 -0.36,0.02 -0.53,0.04 -0.4,0.06 -0.83,0 -1.24,0.02 -0.51,0.02 -0.06,0.08 -0.51,0.12 -0.59,0.05 -1.23,-0.01 -1.82,-0.01 -0.22,0 -0.41,0.03 -0.59,-0.04 -0.42,-0.14 -1.28,-0.05 -1.71,-0.11 -0.2,-0.03 -0.41,-0.02 -0.62,-0.01l-0.47 -0.1c-0.19,-0.05 -0.88,-0.06 -1.12,-0.08 -0.38,-0.03 -0.2,-0.09 -0.51,-0.12 -0.23,-0.01 -0.3,-0.02 -0.52,-0.05 -0.07,0 -0.08,0 -0.15,-0.01 -0.15,-0.04 -0.1,-0.04 -0.13,-0.05l-0.91 -0.18c-0.01,0 -0.02,-0.01 -0.04,-0.01l-1.73 -0.43c-0.01,-0.01 -0.03,-0.02 -0.04,-0.02l-1.81 -0.59c-0.3,-0.15 0.24,0.1 -0.07,-0.04l-0.51 -0.17c-0.02,-0.01 -0.06,-0.03 -0.08,-0.04l-1.01 -0.48c-0.23,-0.1 -0.65,-0.17 -0.76,-0.43l-0.17 0c-0.06,0.14 -0.02,0.06 -0.13,0.15l-1.06 0.94c-0.01,0 -0.02,0.02 -0.03,0.02l-0.22 0.24c-0.01,0.01 -0.01,0.03 -0.02,0.04 -0.34,0.46 -0.78,0.9 -1.16,1.29l-0.08 0.09c-0.1,0.1 0,0.01 -0.12,0.11 -0.15,0.12 0.09,-0.07 -0.07,0.05l-0.06 0.05c-0.48,0.34 -0.04,0.12 -0.68,0.4 -0.01,0.01 -0.03,0.02 -0.04,0.02 -0.33,0.14 -0.99,0.13 -1.31,-0.02l-1.29 -0.93c-0.36,-0.34 -0.34,-0.74 -0.41,-0.96 -0.06,-0.16 0.05,-0.06 -0.11,-0.12l0 -0.29c0.16,-0.06 0.05,0.03 0.11,-0.12 0.06,-0.19 0.02,-0.4 0.09,-0.6 0,-0.01 0.01,-0.02 0.01,-0.04l0.05 -0.12c0.03,-0.07 0.03,-0.1 0.05,-0.18l0.43 -0.66c0.02,-0.04 0.05,-0.1 0.06,-0.11l0.22 -0.29c0.01,-0.01 0.02,-0.02 0.03,-0.03l0.76 -0.84c0.04,-0.04 0.08,-0.06 0.12,-0.1l0.89 -0.77c0.01,0 0.03,-0.01 0.04,-0.02 0.09,-0.05 -0.07,0.01 0.11,-0.05l-0.23 -0.18c0,-0.01 -0.01,-0.02 -0.02,-0.03 -0.01,-0.01 -0.02,-0.03 -0.02,-0.04 -0.1,-0.13 0.02,-0.01 -0.13,-0.16l-0.26 -0.25c-0.04,-0.05 -0.07,-0.07 -0.11,-0.12 -0.02,-0.02 -0.11,-0.11 -0.11,-0.11l-0.99 -1.35c-0.21,-0.24 -0.24,-0.38 -0.31,-0.49l-0.16 -0.29c-0.01,-0.01 -0.02,-0.03 -0.02,-0.04 -0.01,-0.01 -0.04,-0.06 -0.04,-0.07 -0.01,-0.01 -0.02,-0.03 -0.03,-0.04 0,-0.01 -0.01,-0.02 -0.02,-0.03l-0.46 -0.85c-0.01,-0.02 -0.01,-0.03 -0.02,-0.04l-0.28 -0.69c-0.01,-0.01 -0.02,-0.02 -0.02,-0.04l-0.46 -1.19c-0.01,-0.01 -0.01,-0.03 -0.02,-0.04l-0.08 -0.21c-0.01,-0.06 -0.02,-0.12 -0.04,-0.18l-0.26 -0.71c-0.02,-0.09 -0.03,-0.11 -0.06,-0.17 -0.01,-0.02 -0.02,-0.06 -0.03,-0.08 -0.01,-0.01 -0.01,-0.03 -0.02,-0.04 0,-0.02 -0.01,-0.03 -0.01,-0.05 -0.04,-0.14 -0.04,-0.29 -0.07,-0.44 -0.07,-0.36 -0.02,0.02 -0.12,-0.33l-0.34 -1.61c-0.06,-0.31 -0.08,-0.13 -0.11,-0.4 -0.02,-0.17 -0.03,-0.28 -0.05,-0.41 -0.04,-0.42 -0.1,-0.44 -0.12,-0.84 -0.03,-0.58 -0.18,-0.98 -0.17,-1.31l-0.07 -1.65c-0.06,-0.27 -0.01,-0.01 -0.06,-0.16 -0.13,-0.37 -0.04,-2.88 -0.04,-3.33 0,-0.64 -0.1,-2.83 0.07,-3.35 0.06,-0.16 0.05,-0.22 0.04,-0.41 0,-0.7 0.06,-1.25 0.06,-1.88 0,-0.3 0,-0.7 0.07,-0.9 0.09,-0.25 0.04,-0.64 0.04,-0.93 -0.21,0.02 -0.15,0.02 -0.29,0.11l-0.35 0.21c-0.01,0.01 -0.03,0.02 -0.04,0.02l-0.3 0.16c-0.01,0.01 -0.02,0.02 -0.03,0.03 -0.01,0 -0.02,0.01 -0.03,0.02l-0.44 0.14c-0.01,0 -0.02,0.01 -0.04,0.01l-0.11 0.06c-0.02,0 -0.03,0.01 -0.04,0.02 -0.02,0 -0.97,0.17 -1.35,-0.04l-0.07 -0.04c-0.77,-0.46 -0.41,-1.28 -0.96,-1.33 0,-0.09 -0.08,-0.3 -0.11,-0.57l0 -0.5c0.02,-0.16 0.07,-0.32 0.15,-0.49 0.13,-0.28 0.31,-0.46 0.33,-0.47 0,-0.01 0.01,-0.02 0.02,-0.03 0.01,-0.01 0.02,-0.03 0.02,-0.04l0.75 -0.62c0.01,-0.01 0.02,-0.02 0.03,-0.02 0.34,-0.24 0.51,-0.26 0.67,-0.36 0.01,-0.01 0.03,-0.02 0.04,-0.02 0.01,-0.01 0.05,-0.04 0.06,-0.05 0.09,-0.05 0.05,-0.04 0.16,-0.08l0.89 -0.24c0.02,0 0.03,-0.01 0.05,-0.01l0.26 -0.09c0.04,0 0.1,0 0.16,-0.01 0.27,-0.02 0.45,-0.05 0.8,-0.05 0,-0.39 -0.07,-0.92 0.01,-1.3 0.04,-0.17 0.03,-0.07 0.05,-0.12 0.03,-0.09 0.01,0.1 0.05,-0.18l0.01 -7.18c0,-0.53 0.01,-0.97 0.04,-1.32 0.07,-0.7 -0.01,-1.46 0.01,-2.16 0.01,-0.44 0.11,-0.18 0.12,-0.62 0.01,-0.43 -0.06,-0.96 0.07,-1.36 0.01,-0.01 0.01,-0.03 0.02,-0.04 0.12,-0.44 -0.03,-1.5 0.12,-1.93 0,-0.02 0.03,-0.07 0.03,-0.08 0.13,-0.37 0.03,-0.86 0.11,-1.26 0.04,-0.2 0.09,-0.18 0.11,-0.47 0,-0.15 0.01,-0.18 0.02,-0.31l0.22 -1.04c0.08,-0.27 0.05,-0.56 0.14,-0.83l0.37 -1.68 -0.26 -0.17c-0.06,-0.03 -0.02,-0.01 -0.08,-0.04l-1.22 -0.72 -1.48 -1.88c-0.02,-0.04 -0.01,0 -0.05,-0.12l-0.16 -0.64c-0.18,-0.77 -0.08,-1.78 0.16,-2.54 0.04,-0.14 0.03,-0.08 0.05,-0.12l0.46 -0.97c0.01,-0.01 0.05,-0.05 0.08,-0.09 0.01,-0.01 0.02,-0.03 0.02,-0.04l0.75 -0.9c0.37,-0.4 0.8,-0.76 1.29,-0.99 0.02,-0.01 0.03,-0.01 0.04,-0.02l0.56 -0.24c0.07,-0.03 0.07,-0.03 0.13,-0.05l0.55 -0.18c0.46,-0.12 1.73,-0.11 2.2,0.02 0.16,0.04 0,0 0.17,0.05l1.38 0.52c0.33,0.14 0.18,0.32 0.58,0.32 0.09,0 0.09,-0.09 0.15,-0.14l0.56 -0.41c0.01,-0.01 0.02,-0.02 0.03,-0.02l0.56 -0.42c0.01,0 0.03,-0.01 0.04,-0.02l0.49 -0.3c0.15,-0.11 -0.02,-0.03 0.17,-0.11l2.64 -1.19c0.16,-0.06 -0.08,0.03 0.08,-0.03l0.64 -0.22c0.83,-0.22 0.32,-0.19 1.06,-0.31l0.27 -0.07c0.02,0 0.03,-0.01 0.04,-0.01l0.63 -0.12c0.29,-0.05 0.08,-0.03 0.21,-0.07 0.14,-0.04 0.08,-0.03 0.24,-0.05l0.63 -0.1c0.02,-0.01 0.03,-0.02 0.05,-0.02 0.01,0 0.02,-0.01 0.04,-0.01l0.71 -0.15c0.46,-0.02 0.84,-0.03 1.23,-0.14 0.4,-0.12 3.02,-0.14 3.51,-0.14l3.36 0.06c0.22,0 1,0.03 1.19,0.07 0.33,0.07 -0.09,0.02 0.25,0.09l1.84 0.27c0.31,0.08 0.67,0.03 0.96,0.12l2.01 0.44c0.01,0.01 0.03,0.01 0.04,0.02 0.01,0 0.03,0.01 0.04,0.01l0.9 0.25c0.05,0.01 0.15,0.02 0.24,0.05l2.97 1.13c0.01,0.01 0.02,0.01 0.03,0.02 0.08,0.04 0.13,0.06 0.2,0.09 0.01,0.01 0.03,0.01 0.04,0.02l1.43 0.79c0.01,0.01 0.02,0.02 0.03,0.02l1.53 1.04c0.01,0.01 0.03,0.02 0.04,0.02l0.29 0.28c0.01,0.01 0.05,0.04 0.06,0.06l0.53 -0.27c0.01,-0.01 0.06,-0.03 0.08,-0.04l0.3 -0.15c0.1,-0.04 0.07,-0.02 0.17,-0.05 0.02,-0.01 0.03,-0.01 0.05,-0.02l0.81 -0.27c0.6,-0.1 1.46,-0.11 2.08,-0.03 0.38,0.06 0.59,0.09 0.9,0.24 0.1,0.04 -0.02,0.01 0.19,0.09 0.1,0.04 0.13,0.03 0.23,0.06l0.4 0.23c0.01,0.01 0.02,0.02 0.03,0.02l0.39 0.24c0.2,0.13 0.33,0.32 0.51,0.46 0.01,0.01 0.03,0.01 0.04,0.02 0.32,0.22 0.25,0.15 0.49,0.48 0.28,0.4 0.42,0.4 0.63,0.91l0.19 0.38c0.3,0.53 0.06,0.11 0.27,0.64 0,0.02 0.01,0.03 0.02,0.04 0,0.01 0.01,0.03 0.02,0.04 0.1,0.25 0.07,0.52 0.15,0.76l0.08 0.49c-0.01,0.15 0.01,0.44 -0.01,0.57l-0.24 1.01 -0.54 1.01 -0.96 0.97c-0.01,0.01 -0.03,0.02 -0.04,0.02l-0.69 0.45c-0.28,0.18 -0.36,0.15 -0.63,0.29 -0.01,0 -0.02,0.01 -0.03,0.02l-0.11 0.06c-0.08,0.04 -0.07,0.03 -0.18,0.05l0 0.4c0.19,0.08 0.09,0.17 0.17,0.41 0.04,0.15 -0.01,-0.06 0.04,0.13 0.06,0.24 0.04,0.36 0.08,0.6 0.07,0.39 0.03,-0.02 0.1,0.3 0.06,0.3 0.02,0.62 0.07,0.95 0.04,0.3 0.1,0.21 0.11,0.63 0.01,0.26 0.06,0.32 0.06,0.63 0,0.79 0,0.32 0.1,0.81 0.08,0.38 0.01,1.53 0.01,1.93 0,0.29 0.06,0.48 0.05,0.68l-0.05 2.06c0,1.27 -0.07,0.73 -0.11,1.25 -0.06,0.69 0,1.5 -0.06,2.11 -0.03,0.39 -0.11,0.23 -0.12,0.57 0,0.39 0.01,1.44 -0.11,1.77l-0.11 1.54c0,0.67 -0.12,0.67 -0.11,1.31 0,0.62 -0.12,0.57 -0.12,0.97 0,0.11 0,0.23 0,0.34l-0.06 2c0.25,0 0.51,-0.01 0.75,0l1.24 0.24c0.01,0.01 0.02,0.01 0.04,0.02 0.04,0.02 0.07,0.03 0.12,0.05l1.33 0.55c0.46,0.32 0.42,0.48 0.69,0.51 0.03,0.25 0.34,0.45 0.51,0.69l0.04 0.06c0.07,0.12 0.08,0.17 0.08,0.33l0 0zm-44.56 32.54c0.07,-0.32 0.31,-0.89 0.44,-1.19 0.3,-0.67 0.75,-0.84 0.5,-1.06 -0.38,-0.33 -0.94,1.07 -1.06,1.36 -0.04,0.1 -0.06,0.18 -0.1,0.29 -0.03,0.06 -0.05,0.11 -0.07,0.16l-0.1 0.12c-0.4,-0.22 -0.69,-0.81 -0.58,-1.4 0.23,-1.34 2.15,-3.23 2.81,-3.45 0.2,0.12 0.47,0.41 0.72,0.61 0.18,0.15 0.47,0.37 0.74,0.56 0.29,0.22 0.53,0.39 0.78,0.54 0.15,0.1 0.69,0.38 0.78,0.52 -0.04,0.05 -0.52,0.41 -0.57,0.46 -0.45,0.36 -1.2,1.28 -1.56,1.69 -0.28,0.33 -0.65,0.74 -1.11,1 -0.74,0.41 -1.08,0.08 -1.62,-0.21zm39.66 -33.34l0 -1.11c1.72,-0.45 5.41,1.47 4.34,2.82 -0.56,0.02 -1.07,-0.76 -1.09,-0.21 0,0.15 -0.02,0.04 0.04,0.16 0.12,0.2 0.56,0.37 0.74,0.46 0,1.53 -1.9,0.73 -2.51,0.35 -0.2,-0.12 -0.4,-0.26 -0.6,-0.37 -0.69,-0.38 -0.92,0.08 -0.92,-2.1zm-43.17 1.67c-0.24,0.17 -0.56,0.35 -0.81,0.5 -0.82,0.5 -2.43,1.2 -2.57,-0.31 0.13,-0.08 0.59,-0.24 0.73,-0.45 0.12,-0.17 0.12,-0.18 -0.01,-0.31 -0.19,-0.17 -0.37,0.15 -0.66,0.29 -0.65,0.3 -0.94,-0.66 0.19,-1.66 0.72,-0.64 2.05,-1.13 3.31,-1.13l-0.18 3.07zm43.57 -15.07c-0.18,4.54 -0.81,8.8 -0.81,13.4 0,7.84 2.56,17.98 -1.74,25.18 -1.65,2.76 -4.44,4.85 -8,6.2 -7.1,2.68 -17.57,2.3 -23.84,-1.04 -3.13,-1.67 -5.4,-3.88 -6.91,-7.29 -1.58,-3.57 -2.16,-7.61 -2.23,-12.04 -0.07,-4.63 0.5,-9.04 0.6,-13.57 0.13,-6.53 -0.24,-13.69 1.21,-20.11 0.38,-1.71 1.04,-3.98 1.79,-5.33 1.68,-3.03 4.13,-5.26 7.61,-6.59 3.18,-1.23 8.99,-1.95 12.47,-1.52 2.2,0.26 4.05,0.45 6.14,0.94 1.89,0.45 3.69,1.08 5.23,1.89 7.43,3.92 8.81,11.76 8.48,19.88zm-4.98 -17.96c0.22,-0.3 1.38,-0.66 1.8,-0.74 2.1,-0.38 4.08,0.61 5.12,2.32 1.11,1.82 1.02,4.01 -0.73,5.4 -0.31,0.24 -1.28,0.85 -1.68,0.86 -0.06,-0.12 -0.78,-2.4 -0.78,-2.43 0.47,-0.37 1.9,-0.97 1.12,-2.5 -0.23,-0.45 -0.6,-0.82 -1.15,-0.89 -0.79,-0.1 -1.13,0.28 -1.64,0.36 -0.32,-0.49 -1.06,-1.36 -1.49,-1.8 -0.16,-0.17 -0.47,-0.41 -0.57,-0.58zm-33.93 1.04c-0.57,-0.02 -1.47,-0.43 -2.11,0.72 -0.65,1.14 -0.05,1.6 0.35,2.12l-0.56 1.55c-0.19,0.54 -0.32,1.05 -0.5,1.61 -0.37,-0.01 -1.36,-0.65 -1.6,-0.85 -0.5,-0.42 -0.86,-0.84 -1.13,-1.43 -1.4,-2.99 1.51,-7.28 5.49,-6.34 0.45,0.1 1.44,0.48 1.76,0.78l-1.27 1.34c-0.12,0.14 -0.28,0.37 -0.43,0.5z"/>
  <path class="fil2" d="M39.18 67.81c1.17,0.46 1.39,0.64 2.45,1.55 0.83,0.71 2.39,2.21 3.34,1.16 0.49,-0.55 -0.16,-1.14 -0.68,-2 -0.11,-0.18 -0.29,-0.76 0.15,-0.51 0.07,0.04 0.32,0.49 0.41,0.63 0.62,0.92 0.32,0.5 0.72,1.34 0.46,-0.08 0.63,-1.05 0.51,-1.55 -0.35,-1.48 -3.15,-3.12 -3.19,-3.12 -0.15,0.04 -0.76,0.53 -0.93,0.66 -0.9,0.72 -1.8,1.13 -2.71,1.62 -0.24,0.13 -0.09,-0.01 -0.2,0.16l0.13 0.06zm-31.38 2.14c0.54,0.29 0.88,0.62 1.62,0.21 0.46,-0.26 0.83,-0.67 1.11,-1 0.36,-0.41 1.11,-1.33 1.56,-1.69 0.05,-0.05 0.53,-0.41 0.57,-0.46 -0.09,-0.14 -0.63,-0.42 -0.78,-0.52 -0.25,-0.15 -0.49,-0.32 -0.78,-0.54 -0.27,-0.19 -0.56,-0.41 -0.74,-0.56 -0.25,-0.2 -0.52,-0.49 -0.72,-0.61 -0.66,0.22 -2.58,2.11 -2.81,3.45 -0.11,0.59 0.18,1.18 0.58,1.4l0.1 -0.12c0.02,-0.05 0.04,-0.1 0.07,-0.16 0.04,-0.11 0.06,-0.19 0.1,-0.29 0.12,-0.29 0.68,-1.69 1.06,-1.36 0.25,0.22 -0.2,0.39 -0.5,1.06 -0.13,0.3 -0.37,0.87 -0.44,1.19zm39.66 -33.32c0,2.17 0.23,1.72 0.93,2.1 0.19,0.1 0.39,0.25 0.59,0.37 0.62,0.38 2.52,1.17 2.51,-0.35 -0.18,-0.09 -0.62,-0.26 -0.73,-0.47 -0.07,-0.11 -0.05,-0.01 -0.04,-0.16 0.02,-0.54 0.52,0.24 1.08,0.22 1.08,-1.35 -2.61,-3.27 -4.33,-2.82l-0.01 1.11zm-42.99 -1.42c-1.26,0 -2.59,0.49 -3.31,1.13 -1.13,1 -0.84,1.96 -0.19,1.66 0.29,-0.14 0.47,-0.46 0.66,-0.29 0.13,0.13 0.13,0.14 0.01,0.31 -0.14,0.21 -0.6,0.37 -0.73,0.45 0.14,1.51 1.75,0.81 2.57,0.31 0.25,-0.15 0.57,-0.33 0.81,-0.5l0.18 -3.07zm24.76 -17.82c-0.27,0.74 -2.25,0.81 -2.83,0.76 -0.63,-0.05 -2.32,-0.46 -2.48,-1.04 -0.39,0 -0.76,0.31 -1.06,0.5 -0.87,0.57 -2.14,1.66 -1.35,2.86 1.21,1.84 2.77,0.1 4.45,-0.09 2.04,-0.22 3.89,1.66 5.04,0.36 0.98,-1.11 0.21,-2.93 -1.18,-3.45 -0.56,-0.21 -0.31,-0.06 -0.59,0.1z"/>
 </g>
</svg>
