<?xml version="1.0" encoding="UTF-8"?>
<!DOCTYPE svg PUBLIC "-//W3C//DTD SVG 1.1//EN" "http://www.w3.org/Graphics/SVG/1.1/DTD/svg11.dtd">
<!-- Creator: CorelDRAW -->
<svg xmlns="http://www.w3.org/2000/svg" xml:space="preserve" width="275px" height="375px" version="1.1" style="shape-rendering:geometricPrecision; text-rendering:geometricPrecision; image-rendering:optimizeQuality; fill-rule:evenodd; clip-rule:evenodd"
viewBox="0 0 49.62 67.56"
 xmlns:xlink="http://www.w3.org/1999/xlink">
 <defs>
  <style type="text/css">
   <![CDATA[
    .fil0 {fill:#0D100F}
   ]]>
  </style>
 </defs>
 <g id="GolangBW">
  <metadata id="CorelCorpID_0Corel-Layer"/>
  <path class="fil0" d="M37.01 64.21c0.1,-0.16 -0.04,-0.03 0.19,-0.15 0.85,-0.47 1.72,-0.85 2.57,-1.54 0.15,-0.12 0.73,-0.59 0.87,-0.63 0.04,0 2.7,1.56 3.03,2.96 0.12,0.48 -0.05,1.39 -0.49,1.47 -0.38,-0.8 -0.09,-0.4 -0.68,-1.27 -0.08,-0.13 -0.32,-0.56 -0.38,-0.6 -0.42,-0.23 -0.25,0.32 -0.15,0.48 0.5,0.82 1.12,1.38 0.64,1.9 -0.89,1 -2.37,-0.42 -3.16,-1.1 -1.01,-0.86 -1.21,-1.03 -2.32,-1.46l-0.12 -0.06zm-14.58 -43.08c-0.07,0.46 -0.08,1.2 -0.05,1.68 0.04,0.61 0.16,0.88 0.64,1.13 0.97,0.51 1.68,0.31 2.3,-0.67 0.28,0.12 0.49,0.49 0.87,0.7 0.84,0.47 1.54,0 1.91,-0.8 0.1,-0.22 0.4,-0.91 0.28,-1.22 0.21,-0.25 0.07,-1.1 0.06,-1.41 0.24,-0.17 0.82,-0.05 1.35,-0.8 0.68,-0.95 0.41,-2.25 -0.45,-3.09 -0.6,-0.58 -0.73,-0.45 -1.41,-0.77 0.14,-0.59 -0.48,-1.26 -0.78,-1.47 -1.88,-1.37 -4.78,-0.31 -4.7,0.88 -0.11,0.16 -0.06,0.38 -0.06,0.55 -0.36,0.28 -0.9,0.43 -1.53,0.97 -0.36,0.32 -0.86,0.78 -1.03,1.45 -0.2,0.78 0.23,1.43 0.61,1.79 0.61,0.58 1.04,0.52 2.01,0.41l-0.02 0.67zm5.68 -0.4c-0.12,0.4 0.12,1.01 -0.26,2.04 -0.43,1.16 -1.14,1.33 -1.99,0.45 -0.37,-0.38 -0.27,-0.31 -0.26,-0.95 0.02,-0.79 -0.04,-1.46 -0.1,-2.22l0 -0.33c0.31,0.03 1.93,0.57 2.5,0.73 0.01,0.04 0.03,0.1 0.03,0.11 0,0.01 0.01,0.02 0.02,0.04l0.04 0.09c0.01,0.01 0.01,0.03 0.02,0.04zm-3.12 -1.03c0.03,0.75 0.31,2.89 -0.02,3.43 -0.68,1.11 -1.94,0.71 -2.19,-0.03 -0.07,-1.02 0.04,-1.81 0.08,-2.79 0.36,-0.21 1.58,-0.71 2.13,-0.61zm2.71 -3.22c0.27,-0.15 0.03,-0.3 0.56,-0.1 1.32,0.5 2.04,2.23 1.12,3.27 -1.09,1.24 -2.85,-0.55 -4.78,-0.33 -1.59,0.17 -3.07,1.82 -4.21,0.08 -0.75,-1.14 0.45,-2.18 1.27,-2.71 0.29,-0.18 0.64,-0.48 1.01,-0.47 0.15,0.55 1.75,0.93 2.35,0.98 0.55,0.05 2.42,-0.02 2.68,-0.72zm4.91 -12.17c-3.81,0.48 -5.95,3.48 -5.36,7.04 0.51,3.12 3.93,5.4 7.53,4.9 1.95,-0.27 3.15,-1.02 4.08,-2.14 0.99,-1.21 1.57,-3.02 1.21,-4.9 -0.67,-3.46 -4.24,-5.3 -7.46,-4.9zm-16.03 -0.66c-1.82,0.29 -3.1,1.04 -4.01,2.27 -0.91,1.23 -1.48,3.16 -1.13,4.96 0.6,3.09 3.95,5.26 7.72,4.68 5.72,-0.88 7.14,-7.55 2.46,-10.75 -1.19,-0.81 -3.2,-1.44 -5.04,-1.16zm19.74 4.98c1.15,-0.36 2.13,0.64 2.29,1.54 0.22,1.19 -0.49,2.19 -1.42,2.42 -2.3,0.58 -3.37,-3.17 -0.87,-3.96zm-2.54 7.33c3.64,0 6.1,-2.37 6.01,-5.91 -0.17,-6.83 -12.32,-7.74 -12.26,0.38 0.03,3.27 3.03,5.53 6.25,5.53zm-13.06 -7.86c1.13,-0.25 1.98,0.72 2.13,1.64 0.18,1.13 -0.52,2.18 -1.46,2.36 -1.23,0.23 -2.05,-0.73 -2.19,-1.68 -0.18,-1.19 0.53,-2.1 1.52,-2.32zm-4 -4.1c-0.93,0.19 -1.33,0.21 -2.22,0.71 -3.14,1.74 -4.22,7.08 -0.22,9.55 4.44,2.75 10.85,-0.23 9.63,-5.69 -0.34,-1.5 -1.31,-2.64 -2.49,-3.45 -0.97,-0.67 -3.11,-1.44 -4.7,-1.12zm32.9 31.46l0 0.82c-0.01,0.25 -0.06,0.09 -0.27,0.42l-0.29 0.79c-0.15,0.26 -0.15,0.23 -0.39,0.37l-0.26 0.12c-0.23,0.1 -0.61,0.12 -0.87,0.03l-0.07 -0.03c-0.3,-0.1 -0.58,-0.15 -0.85,-0.29l-0.67 -0.41c-0.01,0 -0.02,-0.01 -0.03,-0.02 -0.01,0 -0.02,-0.01 -0.03,-0.02l-0.76 -0.27c0,0.3 -0.05,0.66 0.01,0.96 0.07,0.32 0.02,-0.08 0.09,0.24 0.03,0.15 0,0.47 0.01,0.64 0,0.43 0.07,0.23 0.11,0.54 0.04,0.38 -0.01,1.55 0.09,1.85 0.04,0.12 0.04,-0.06 0.07,0.25l0.11 2.17c0.12,0.34 0.18,5.74 0.09,6.36 -0.03,0.24 0,0.81 -0.05,1.03 -0.04,0.2 -0.1,0.23 -0.1,0.44 0,0.2 0.01,0.32 -0.02,0.52l-0.1 0.66c-0.08,0.25 -0.07,0.74 -0.26,1.31 0,0.01 -0.01,0.03 -0.01,0.04 -0.07,0.23 -0.06,0.48 -0.15,0.72 -0.14,0.41 -0.17,0.82 -0.34,1.22 -0.01,0.01 -0.02,0.02 -0.02,0.04l-0.3 0.78c-0.02,0.08 -0.03,0.1 -0.07,0.19l-0.31 0.67c-0.01,0.01 -0.02,0.02 -0.02,0.03 -0.01,0.01 -0.02,0.03 -0.02,0.04l-0.45 0.85c-0.01,0.01 -0.01,0.02 -0.02,0.03l-0.36 0.62c0,0.01 -0.01,0.02 -0.02,0.03l-0.08 0.14c-0.24,0.4 -0.39,0.45 -0.59,0.76l-0.9 1.04c-0.01,0.01 -0.02,0.02 -0.02,0.03l-0.11 0.11c0,0.01 -0.02,0.02 -0.03,0.03 -0.03,0.03 -0.05,0.04 -0.08,0.07 -0.02,0.01 -0.05,0.04 -0.06,0.05 -0.09,0.06 -0.02,0.05 -0.14,0.08l0 0.11c0.18,0.04 0.19,0.1 0.33,0.2l0.67 0.47c0.01,0.01 0.05,0.04 0.06,0.05 0.35,0.25 0.67,0.5 0.96,0.82l0.39 0.37c0.01,0.01 0.04,0.04 0.05,0.05l0.29 0.47c0.17,0.31 0.33,0.6 0.33,0.97 0,0.25 0.03,0.59 -0.05,0.82l-0.49 0.81c-0.01,0 -0.02,0.02 -0.02,0.02l-0.23 0.16c-0.12,0.04 -0.09,0.03 -0.24,0.03 -0.02,0.19 -0.12,0.22 -0.27,0.38l-0.13 0.14c-0.17,0.13 -0.36,0.18 -0.57,0.18 -0.89,0 -1.11,-0.04 -1.78,-0.49l-0.64 -0.49c-0.01,-0.01 -0.03,-0.02 -0.03,-0.03l-0.23 -0.2c-0.02,-0.02 -0.02,-0.07 -0.24,-0.19 -0.14,-0.08 -0.04,0 -0.17,-0.11l-0.89 -0.73c-0.01,-0.01 -0.05,-0.04 -0.06,-0.05l-0.19 -0.13c-0.07,-0.05 -0.08,-0.05 -0.17,-0.1 -0.01,-0.01 -0.05,-0.03 -0.07,-0.04 -0.01,-0.01 -0.02,-0.01 -0.03,-0.02l-0.5 -0.21c-1,-0.33 -0.68,-0.15 -1.31,-0.01l-1.22 0.41c-0.02,0 -0.06,0.02 -0.08,0.03 -0.39,0.15 -0.6,0.17 -0.9,0.29 -0.35,0.14 -0.73,0.14 -1.09,0.26l-1.48 0.35c-0.22,0.03 -0.32,0.04 -0.54,0.05 -0.46,0.04 -0.1,0.06 -0.44,0.11 -0.31,0.04 -0.77,0.01 -1.04,0.1 -0.11,0.03 0.06,0.04 -0.25,0.07 -0.07,0 -0.2,0 -0.27,0 -0.25,-0.01 -0.35,0.01 -0.5,0.04 -0.39,0.05 -0.79,-0.01 -1.18,0.01 -0.48,0.02 -0.06,0.07 -0.48,0.11 -0.57,0.05 -1.17,-0.01 -1.73,0 -0.21,0 -0.39,0.02 -0.56,-0.04 -0.39,-0.13 -1.21,-0.05 -1.62,-0.11 -0.19,-0.03 -0.39,-0.01 -0.58,-0.01l-0.46 -0.09c-0.17,-0.05 -0.83,-0.06 -1.05,-0.08 -0.37,-0.03 -0.19,-0.08 -0.49,-0.11 -0.22,-0.01 -0.28,-0.02 -0.49,-0.04 -0.06,-0.01 -0.08,-0.01 -0.15,-0.02 -0.14,-0.03 -0.09,-0.03 -0.12,-0.04l-0.85 -0.17c-0.02,-0.01 -0.03,-0.01 -0.04,-0.02l-1.65 -0.41c-0.01,0 -0.02,-0.01 -0.04,-0.01l-1.71 -0.56c-0.28,-0.14 0.23,0.1 -0.07,-0.04l-0.48 -0.16c-0.02,-0.01 -0.06,-0.03 -0.07,-0.04l-0.96 -0.45c-0.22,-0.1 -0.62,-0.17 -0.72,-0.41l-0.16 0c-0.06,0.13 -0.03,0.06 -0.13,0.14l-1 0.89c-0.01,0.01 -0.02,0.02 -0.03,0.03l-0.21 0.22c0,0.01 -0.01,0.02 -0.02,0.03 -0.32,0.45 -0.73,0.86 -1.09,1.23l-0.08 0.08c-0.1,0.1 -0.01,0.02 -0.12,0.11 -0.14,0.11 0.09,-0.07 -0.06,0.04l-0.06 0.05c-0.45,0.33 -0.04,0.12 -0.64,0.39 -0.01,0 -0.03,0.01 -0.04,0.01 -0.31,0.13 -0.94,0.13 -1.24,-0.01l-1.23 -0.89c-0.34,-0.32 -0.32,-0.7 -0.39,-0.91 -0.05,-0.15 0.06,-0.05 -0.09,-0.12l0 -0.27c0.15,-0.06 0.04,0.04 0.09,-0.11 0.06,-0.18 0.02,-0.38 0.09,-0.57 0,-0.01 0.01,-0.02 0.01,-0.04l0.05 -0.11c0.03,-0.07 0.03,-0.1 0.05,-0.17l0.4 -0.63c0.02,-0.03 0.05,-0.09 0.06,-0.1l0.21 -0.27c0.01,-0.01 0.02,-0.02 0.03,-0.03l0.71 -0.8c0.05,-0.04 0.08,-0.06 0.12,-0.09l0.84 -0.73c0.01,-0.01 0.03,-0.02 0.04,-0.02 0.08,-0.05 -0.07,0.01 0.11,-0.06l-0.22 -0.16c0,-0.01 -0.01,-0.02 -0.02,-0.03 -0.01,-0.01 -0.02,-0.02 -0.02,-0.03 -0.09,-0.13 0.02,-0.01 -0.12,-0.16l-0.25 -0.23c-0.04,-0.05 -0.06,-0.08 -0.1,-0.12 -0.02,-0.02 -0.11,-0.11 -0.11,-0.11l-0.93 -1.28c-0.2,-0.22 -0.24,-0.35 -0.3,-0.46l-0.15 -0.28c-0.01,-0.01 -0.02,-0.02 -0.02,-0.03 -0.01,-0.02 -0.03,-0.06 -0.04,-0.07 -0.01,-0.01 -0.02,-0.02 -0.02,-0.03 -0.01,-0.01 -0.02,-0.02 -0.03,-0.03l-0.43 -0.81c-0.01,-0.01 -0.01,-0.03 -0.02,-0.04l-0.27 -0.65c0,-0.01 -0.01,-0.02 -0.02,-0.03l-0.43 -1.14c-0.01,-0.01 -0.01,-0.02 -0.02,-0.03l-0.07 -0.2c-0.02,-0.06 -0.03,-0.12 -0.04,-0.17l-0.24 -0.68c-0.03,-0.08 -0.04,-0.11 -0.06,-0.16 -0.01,-0.02 -0.03,-0.05 -0.04,-0.07 0,-0.02 -0.01,-0.03 -0.01,-0.04 -0.01,-0.02 -0.01,-0.03 -0.01,-0.05 -0.04,-0.13 -0.04,-0.27 -0.07,-0.42 -0.07,-0.34 -0.02,0.02 -0.12,-0.31l-0.31 -1.52c-0.06,-0.3 -0.08,-0.13 -0.11,-0.38 -0.02,-0.16 -0.03,-0.27 -0.04,-0.39 -0.04,-0.4 -0.1,-0.42 -0.12,-0.8 -0.03,-0.55 -0.17,-0.92 -0.16,-1.24l-0.07 -1.56c-0.05,-0.26 -0.01,-0.01 -0.06,-0.16 -0.11,-0.35 -0.03,-2.73 -0.03,-3.15 0,-0.61 -0.1,-2.68 0.07,-3.17 0.05,-0.15 0.04,-0.21 0.04,-0.4 -0.01,-0.66 0.05,-1.18 0.05,-1.78 0,-0.28 0,-0.66 0.07,-0.85 0.08,-0.24 0.04,-0.6 0.04,-0.88 -0.21,0.02 -0.15,0.02 -0.28,0.1l-0.34 0.21c-0.01,0 -0.02,0.01 -0.03,0.02l-0.28 0.15c-0.01,0 -0.02,0.01 -0.03,0.02 -0.01,0 -0.03,0.01 -0.04,0.02l-0.41 0.13c-0.01,0.01 -0.02,0.01 -0.03,0.02l-0.11 0.05c-0.02,0 -0.03,0.01 -0.04,0.01 -0.02,0.01 -0.92,0.17 -1.28,-0.03l-0.06 -0.04c-0.74,-0.43 -0.39,-1.21 -0.91,-1.26 -0.01,-0.09 -0.08,-0.28 -0.11,-0.53l0 -0.49c0.02,-0.14 0.06,-0.3 0.14,-0.46 0.13,-0.26 0.3,-0.43 0.31,-0.44 0.01,-0.01 0.02,-0.03 0.02,-0.03 0.01,-0.01 0.02,-0.03 0.02,-0.04l0.71 -0.58c0.01,-0.01 0.03,-0.02 0.04,-0.03 0.31,-0.22 0.47,-0.24 0.63,-0.33 0.01,-0.01 0.02,-0.02 0.03,-0.03 0.02,-0.01 0.05,-0.03 0.07,-0.04 0.08,-0.05 0.04,-0.04 0.14,-0.07l0.85 -0.23c0.02,-0.01 0.03,-0.01 0.04,-0.02l0.25 -0.08c0.04,0 0.1,0 0.15,-0.01 0.26,-0.02 0.43,-0.04 0.76,-0.04 0,-0.37 -0.06,-0.88 0.01,-1.24 0.04,-0.16 0.03,-0.07 0.05,-0.12 0.03,-0.08 0.01,0.1 0.05,-0.16l0 -6.81c0,-0.5 0.01,-0.92 0.04,-1.25 0.07,-0.66 -0.01,-1.38 0.01,-2.05 0.01,-0.41 0.1,-0.17 0.12,-0.59 0.01,-0.4 -0.06,-0.91 0.06,-1.28 0.01,-0.01 0.01,-0.03 0.02,-0.04 0.12,-0.42 -0.03,-1.42 0.11,-1.83 0.01,-0.02 0.03,-0.06 0.03,-0.08 0.12,-0.35 0.03,-0.81 0.11,-1.19 0.04,-0.18 0.08,-0.17 0.1,-0.44 0,-0.15 0.01,-0.17 0.02,-0.3l0.21 -0.99c0.08,-0.25 0.04,-0.53 0.13,-0.78l0.35 -1.59 -0.25 -0.16c-0.05,-0.03 -0.01,-0.01 -0.07,-0.04l-1.16 -0.68 -1.4 -1.79c-0.01,-0.03 -0.01,0.01 -0.05,-0.11l-0.15 -0.6c-0.17,-0.73 -0.08,-1.69 0.15,-2.42 0.05,-0.12 0.04,-0.07 0.05,-0.11l0.44 -0.91c0.01,-0.01 0.04,-0.06 0.07,-0.09 0.01,-0.01 0.02,-0.03 0.03,-0.03l0.7 -0.87c0.35,-0.37 0.76,-0.71 1.23,-0.93 0.01,-0.01 0.02,-0.01 0.03,-0.02l0.53 -0.23c0.07,-0.02 0.07,-0.02 0.12,-0.04l0.53 -0.18c0.43,-0.11 1.64,-0.1 2.09,0.02 0.14,0.04 0,0.01 0.16,0.06l1.3 0.48c0.31,0.14 0.17,0.31 0.56,0.31 0.08,0 0.08,-0.08 0.13,-0.14l0.53 -0.38c0.01,-0.01 0.03,-0.02 0.04,-0.03l0.52 -0.39c0.01,0 0.03,-0.01 0.04,-0.02l0.46 -0.29c0.15,-0.1 -0.01,-0.02 0.17,-0.1l2.5 -1.12c0.15,-0.06 -0.07,0.02 0.08,-0.03l0.6 -0.21c0.79,-0.21 0.3,-0.19 1,-0.29l0.26 -0.07c0.02,0 0.03,-0.01 0.04,-0.01l0.59 -0.12c0.28,-0.05 0.08,-0.02 0.21,-0.06 0.12,-0.04 0.07,-0.03 0.22,-0.05l0.6 -0.1c0.02,0 0.03,-0.01 0.04,-0.01 0.02,-0.01 0.03,-0.01 0.04,-0.02l0.68 -0.13c0.43,-0.03 0.8,-0.04 1.16,-0.14 0.38,-0.11 2.87,-0.13 3.33,-0.13l3.18 0.06c0.21,0 0.95,0.02 1.13,0.06 0.32,0.07 -0.08,0.02 0.24,0.09l1.74 0.25c0.3,0.08 0.63,0.03 0.91,0.12l1.91 0.42c0.01,0 0.02,0.01 0.04,0.01 0.01,0.01 0.02,0.01 0.03,0.02l0.85 0.23c0.05,0.01 0.15,0.02 0.23,0.04l2.82 1.08c0.01,0 0.02,0.01 0.03,0.02 0.08,0.04 0.12,0.05 0.19,0.08 0.01,0.01 0.02,0.02 0.03,0.02l1.36 0.75c0.01,0.01 0.02,0.02 0.03,0.02l1.45 0.99c0.01,0 0.03,0.01 0.04,0.02l0.27 0.26c0.01,0.01 0.04,0.04 0.06,0.05l0.5 -0.25c0.01,-0.01 0.06,-0.03 0.07,-0.03l0.29 -0.15c0.1,-0.04 0.07,-0.02 0.17,-0.05 0.01,0 0.02,-0.01 0.04,-0.01l0.77 -0.26c0.56,-0.1 1.38,-0.11 1.96,-0.03 0.36,0.05 0.57,0.09 0.86,0.23 0.1,0.04 -0.02,0.01 0.18,0.08 0.1,0.04 0.13,0.03 0.22,0.06l0.38 0.22c0,0 0.02,0.01 0.03,0.02l0.37 0.22c0.19,0.12 0.31,0.3 0.48,0.44 0.01,0 0.03,0.01 0.03,0.02 0.31,0.2 0.24,0.14 0.47,0.46 0.26,0.37 0.4,0.37 0.6,0.85l0.18 0.37c0.29,0.5 0.05,0.1 0.25,0.61 0.01,0.01 0.01,0.02 0.02,0.03 0,0.01 0.01,0.03 0.02,0.04 0.1,0.24 0.07,0.49 0.14,0.72l0.08 0.47c-0.01,0.14 0.01,0.41 -0.01,0.54l-0.23 0.95 -0.51 0.95 -0.91 0.93c-0.01,0 -0.03,0.01 -0.04,0.02l-0.65 0.42c-0.27,0.18 -0.34,0.15 -0.6,0.28 -0.01,0 -0.02,0.01 -0.03,0.02l-0.1 0.05c-0.08,0.04 -0.07,0.03 -0.17,0.05l0 0.38c0.18,0.07 0.09,0.16 0.16,0.39 0.04,0.14 -0.01,-0.06 0.04,0.12 0.05,0.23 0.03,0.34 0.08,0.57 0.06,0.37 0.03,-0.02 0.09,0.28 0.06,0.29 0.02,0.59 0.07,0.91 0.04,0.28 0.09,0.19 0.1,0.59 0.01,0.25 0.06,0.3 0.06,0.6 0,0.75 -0.01,0.31 0.09,0.77 0.08,0.35 0.01,1.45 0.01,1.83 0,0.27 0.06,0.45 0.05,0.64l-0.05 1.95c0,1.21 -0.06,0.69 -0.11,1.19 -0.05,0.65 0,1.42 -0.05,2 -0.03,0.37 -0.11,0.21 -0.11,0.53 -0.01,0.38 0.01,1.37 -0.11,1.68l-0.1 1.46c0,0.64 -0.12,0.64 -0.11,1.25 0.01,0.58 -0.11,0.53 -0.11,0.91 0,0.11 0,0.22 0,0.33l-0.05 1.89c0.23,0 0.47,-0.01 0.7,0l1.17 0.23c0.02,0.01 0.03,0.01 0.04,0.02 0.04,0.01 0.08,0.03 0.12,0.05l1.26 0.52c0.44,0.3 0.39,0.45 0.65,0.48 0.03,0.24 0.32,0.43 0.48,0.65l0.05 0.06c0.06,0.11 0.07,0.16 0.07,0.31l0 0.01zm-42.23 30.83c0.07,-0.3 0.3,-0.84 0.42,-1.13 0.28,-0.63 0.71,-0.79 0.47,-1 -0.36,-0.31 -0.89,1.01 -1,1.28 -0.04,0.1 -0.06,0.18 -0.1,0.28 -0.02,0.06 -0.04,0.11 -0.06,0.15l-0.09 0.12c-0.38,-0.22 -0.66,-0.77 -0.56,-1.33 0.22,-1.26 2.04,-3.06 2.66,-3.27 0.2,0.11 0.46,0.39 0.68,0.57 0.18,0.15 0.46,0.36 0.71,0.54 0.27,0.2 0.5,0.37 0.74,0.51 0.15,0.09 0.65,0.36 0.73,0.5 -0.03,0.04 -0.49,0.39 -0.54,0.43 -0.42,0.34 -1.13,1.22 -1.47,1.6 -0.27,0.32 -0.62,0.7 -1.06,0.95 -0.69,0.39 -1.02,0.08 -1.53,-0.2zm37.58 -31.59l0.01 -1.06c1.63,-0.42 5.13,1.4 4.11,2.68 -0.53,0.01 -1.01,-0.72 -1.03,-0.21 -0.01,0.15 -0.03,0.05 0.04,0.16 0.11,0.19 0.52,0.35 0.69,0.43 0.01,1.45 -1.79,0.7 -2.37,0.34 -0.2,-0.12 -0.38,-0.25 -0.57,-0.35 -0.66,-0.36 -0.88,0.07 -0.88,-1.99zm-40.9 1.58c-0.23,0.16 -0.53,0.33 -0.77,0.48 -0.78,0.46 -2.31,1.13 -2.44,-0.3 0.13,-0.08 0.56,-0.23 0.69,-0.43 0.12,-0.16 0.12,-0.16 -0.01,-0.29 -0.18,-0.16 -0.35,0.14 -0.62,0.27 -0.62,0.29 -0.89,-0.62 0.18,-1.57 0.68,-0.61 1.95,-1.07 3.13,-1.07l-0.16 2.91zm41.29 -14.28c-0.17,4.29 -0.77,8.34 -0.77,12.7 0,7.42 2.43,17.03 -1.65,23.86 -1.56,2.62 -4.21,4.6 -7.58,5.87 -6.73,2.55 -16.66,2.19 -22.59,-0.98 -2.97,-1.58 -5.13,-3.68 -6.56,-6.92 -1.49,-3.38 -2.04,-7.2 -2.1,-11.4 -0.07,-4.39 0.47,-8.57 0.56,-12.86 0.13,-6.19 -0.22,-12.97 1.15,-19.05 0.36,-1.63 0.98,-3.78 1.69,-5.06 1.6,-2.87 3.92,-4.98 7.21,-6.25 3.02,-1.16 8.52,-1.84 11.82,-1.44 2.09,0.25 3.85,0.43 5.83,0.9 1.79,0.42 3.49,1.02 4.95,1.79 7.04,3.71 8.35,11.14 8.04,18.84zm-4.73 -17.03c0.22,-0.28 1.31,-0.62 1.71,-0.69 2,-0.37 3.87,0.57 4.86,2.19 1.05,1.73 0.96,3.8 -0.7,5.12 -0.29,0.23 -1.21,0.8 -1.59,0.82 -0.06,-0.12 -0.73,-2.28 -0.74,-2.3 0.45,-0.36 1.8,-0.93 1.06,-2.38 -0.21,-0.42 -0.57,-0.77 -1.09,-0.84 -0.75,-0.1 -1.06,0.26 -1.55,0.34 -0.31,-0.46 -1,-1.29 -1.42,-1.71 -0.15,-0.15 -0.43,-0.39 -0.54,-0.55zm-32.14 0.99c-0.55,-0.02 -1.4,-0.4 -2.01,0.68 -0.61,1.08 -0.05,1.52 0.33,2.01l-0.53 1.47c-0.17,0.51 -0.3,1 -0.47,1.53 -0.35,-0.01 -1.29,-0.62 -1.51,-0.81 -0.48,-0.39 -0.82,-0.8 -1.08,-1.36 -1.32,-2.83 1.43,-6.89 5.21,-6.01 0.42,0.1 1.36,0.46 1.66,0.75l-1.2 1.27c-0.12,0.13 -0.27,0.35 -0.4,0.47z"/>
 </g>
</svg>
