<?xml version="1.0" encoding="UTF-8"?>
<!DOCTYPE svg PUBLIC "-//W3C//DTD SVG 1.1//EN" "http://www.w3.org/Graphics/SVG/1.1/DTD/svg11.dtd">
<!-- Creator: CorelDRAW -->
<svg xmlns="http://www.w3.org/2000/svg" xml:space="preserve" width="275px" height="375px" version="1.1" style="shape-rendering:geometricPrecision; text-rendering:geometricPrecision; image-rendering:optimizeQuality; fill-rule:evenodd; clip-rule:evenodd"
viewBox="0 0 150.15 204.46"
 xmlns:xlink="http://www.w3.org/1999/xlink">
 <defs>
  <style type="text/css">
   <![CDATA[
    .str0 {stroke:white;stroke-width:1.14}
    .fil2 {fill:#0D100F}
    .fil1 {fill:#6AD9E6}
    .fil3 {fill:#F6D3A3}
    .fil0 {fill:white}
   ]]>
  </style>
 </defs>
 <g id="GolangColor">
  <metadata id="CorelCorpID_0Corel-Layer"/>
  <g id="_1675482460096">
   <ellipse class="fil0 str0" cx="104.16" cy="31.51" rx="23.04" ry="20.97"/>
   <ellipse class="fil0 str0" cx="53.53" cy="30.66" rx="22.6" ry="20.97"/>
   <path class="fil1" d="M85.87 66.44c0.38,0.92 -0.53,3 -0.84,3.69 -1.11,2.41 -3.23,3.84 -5.78,2.41 -1.15,-0.64 -1.78,-1.75 -2.63,-2.11 -1.88,2.94 -4.02,3.56 -6.94,2.03 -1.47,-0.76 -1.84,-1.57 -1.95,-3.43 -0.08,-1.47 -0.07,-3.71 0.14,-5.08l0.07 -2.03c-2.92,0.33 -4.23,0.5 -6.09,-1.26 -1.13,-1.06 -2.46,-3.04 -1.85,-5.4 0.52,-2.04 2.04,-3.42 3.14,-4.38 1.89,-1.66 3.52,-2.11 4.61,-2.96 0,-0.51 -0.15,-1.18 0.19,-1.65 -0.24,-3.59 8.53,-6.81 14.24,-2.67 0.89,0.64 2.76,2.68 2.34,4.44 2.07,0.99 2.45,0.58 4.28,2.36 2.59,2.52 3.42,6.47 1.37,9.33 -1.63,2.27 -3.37,1.93 -4.1,2.42 0.03,0.95 0.44,3.51 -0.2,4.29zm12.81 -53.39c9.76,-1.23 20.55,4.34 22.57,14.81 1.1,5.71 -0.64,11.17 -3.65,14.83 -2.8,3.4 -6.44,5.68 -12.36,6.5 -10.88,1.51 -21.22,-5.39 -22.78,-14.84 -1.77,-10.77 4.69,-19.85 16.22,-21.3zm-48.49 -1.99c5.57,-0.87 11.63,1.04 15.24,3.5 14.16,9.67 9.87,29.86 -7.44,32.53 -11.42,1.76 -21.55,-4.82 -23.37,-14.15 -1.07,-5.45 0.67,-11.3 3.42,-15.03 2.76,-3.72 6.64,-6 12.15,-6.85zm87.08 55.51c0.94,-23.3 -3.02,-45.79 -24.32,-57.01 -4.43,-2.33 -9.59,-4.15 -15,-5.43 -6,-1.4 -11.31,-1.94 -17.63,-2.71 -9.98,-1.21 -26.62,0.84 -35.77,4.36 -9.95,3.84 -16.99,10.21 -21.82,18.91 -2.15,3.86 -4.02,10.38 -5.13,15.3 -4.14,18.41 -3.08,38.94 -3.47,57.66 -0.27,13 -1.9,25.63 -1.7,38.93 0.18,12.71 1.86,24.28 6.38,34.51 4.32,9.79 10.85,16.13 19.82,20.92 17.97,9.59 48,10.68 68.37,2.98 10.2,-3.86 18.21,-9.86 22.95,-17.78 12.34,-20.65 4.99,-49.73 5,-72.2 0,-13.2 1.8,-25.44 2.32,-38.44zm-111.59 -48.53c0.41,-0.38 0.87,-1.04 1.23,-1.43l3.63 -3.85c-0.92,-0.85 -3.76,-1.95 -5.04,-2.25 -11.43,-2.69 -19.75,9.63 -15.75,18.18 0.79,1.7 1.81,2.92 3.25,4.11 0.69,0.57 3.51,2.42 4.57,2.45 0.52,-1.61 0.91,-3.08 1.44,-4.61l1.6 -4.47c-1.14,-1.48 -2.85,-2.8 -1,-6.07 1.85,-3.28 4.42,-2.12 6.07,-2.06zm97.29 -2.99c0.31,0.49 1.17,1.19 1.63,1.67 1.25,1.27 3.36,3.76 4.29,5.16 1.47,-0.23 2.42,-1.33 4.69,-1.03 1.59,0.21 2.65,1.26 3.31,2.55 2.23,4.39 -1.87,6.11 -3.21,7.19 0.01,0.06 2.05,6.62 2.24,6.97 1.14,-0.06 3.92,-1.79 4.8,-2.49 5.03,-3.99 5.29,-10.27 2.11,-15.48 -3,-4.9 -8.65,-7.75 -14.7,-6.65 -1.2,0.22 -4.51,1.27 -5.16,2.11z"/>
   <path class="fil2" d="M112 194.32c0.3,-0.49 -0.11,-0.09 0.56,-0.46 2.6,-1.43 5.21,-2.58 7.79,-4.65 0.47,-0.37 2.22,-1.78 2.65,-1.92 0.12,0.01 8.15,4.72 9.16,8.96 0.35,1.44 -0.15,4.21 -1.47,4.45 -1.15,-2.42 -0.28,-1.2 -2.06,-3.84 -0.27,-0.39 -0.97,-1.71 -1.17,-1.81 -1.27,-0.71 -0.74,0.95 -0.44,1.45 1.49,2.48 3.37,4.16 1.94,5.75 -2.71,3.01 -7.18,-1.28 -9.57,-3.33 -3.05,-2.62 -3.67,-3.12 -7.01,-4.43l-0.38 -0.17zm-44.13 -130.37c-0.21,1.37 -0.22,3.61 -0.14,5.08 0.11,1.86 0.48,2.67 1.95,3.43 2.92,1.53 5.06,0.91 6.94,-2.03 0.85,0.36 1.48,1.47 2.63,2.11 2.55,1.43 4.67,0 5.78,-2.41 0.31,-0.69 1.22,-2.77 0.84,-3.69 0.64,-0.78 0.23,-3.34 0.2,-4.29 0.73,-0.49 2.47,-0.15 4.1,-2.42 2.05,-2.86 1.22,-6.81 -1.37,-9.33 -1.83,-1.78 -2.21,-1.37 -4.28,-2.36 0.42,-1.76 -1.45,-3.8 -2.34,-4.44 -5.71,-4.14 -14.48,-0.92 -14.24,2.68 -0.34,0.46 -0.19,1.13 -0.19,1.64 -1.09,0.85 -2.72,1.31 -4.61,2.96 -1.1,0.96 -2.62,2.34 -3.14,4.38 -0.61,2.36 0.72,4.34 1.85,5.4 1.86,1.76 3.17,1.59 6.09,1.27l-0.07 2.02zm17.21 -1.21c-0.37,1.22 0.36,3.05 -0.79,6.16 -1.31,3.53 -3.46,4.04 -6.03,1.37 -1.11,-1.14 -0.83,-0.95 -0.79,-2.88 0.05,-2.4 -0.13,-4.41 -0.3,-6.71l0 -1c0.94,0.1 5.83,1.73 7.56,2.2 0.05,0.13 0.08,0.3 0.09,0.33 0.02,0.03 0.04,0.08 0.05,0.12l0.14 0.27c0.02,0.04 0.04,0.1 0.07,0.14zm-9.45 -3.13c0.07,2.27 0.94,8.74 -0.07,10.4 -2.05,3.36 -5.85,2.13 -6.61,-0.11 -0.23,-3.08 0.11,-5.47 0.24,-8.44 1.08,-0.62 4.76,-2.15 6.44,-1.85zm8.2 -9.73c0.8,-0.47 0.1,-0.91 1.7,-0.3 3.99,1.49 6.18,6.73 3.38,9.89 -3.31,3.74 -8.61,-1.66 -14.46,-1.01 -4.81,0.53 -9.28,5.51 -12.76,0.24 -2.25,-3.43 1.38,-6.57 3.87,-8.19 0.86,-0.55 1.93,-1.45 3.04,-1.43 0.46,1.66 5.31,2.82 7.13,2.97 1.65,0.14 7.32,-0.05 8.1,-2.17zm14.85 -36.83c-11.53,1.45 -17.99,10.53 -16.22,21.3 1.56,9.45 11.91,16.35 22.78,14.84 5.92,-0.82 9.56,-3.1 12.36,-6.5 3.01,-3.66 4.76,-9.12 3.65,-14.83 -2.02,-10.47 -12.81,-16.04 -22.57,-14.81zm-48.49 -1.99c-5.51,0.85 -9.39,3.13 -12.15,6.86 -2.75,3.72 -4.49,9.57 -3.42,15.02 1.82,9.33 11.95,15.91 23.37,14.15 17.31,-2.67 21.6,-22.86 7.44,-32.53 -3.61,-2.46 -9.67,-4.37 -15.24,-3.5zm59.72 15.06c3.48,-1.1 6.46,1.94 6.95,4.67 0.64,3.58 -1.5,6.61 -4.31,7.32 -6.95,1.76 -10.2,-9.6 -2.64,-11.99zm-7.68 22.17c11.01,0 18.47,-7.16 18.2,-17.87 -0.53,-20.68 -37.3,-23.44 -37.11,1.15 0.07,9.9 9.16,16.72 18.91,16.72zm-39.53 -23.78c3.44,-0.75 6,2.18 6.45,4.97 0.55,3.41 -1.58,6.58 -4.43,7.13 -3.71,0.7 -6.2,-2.21 -6.62,-5.07 -0.53,-3.59 1.62,-6.37 4.6,-7.03zm-12.1 -12.39c-2.81,0.57 -4.04,0.63 -6.73,2.13 -9.49,5.27 -12.77,21.43 -0.66,28.91 13.45,8.32 32.86,-0.69 29.15,-17.21 -1.03,-4.57 -3.96,-8 -7.54,-10.46 -2.92,-2.02 -9.39,-4.36 -14.22,-3.37zm99.55 95.18l0 2.5c-0.03,0.76 -0.18,0.27 -0.81,1.27l-0.89 2.38c-0.42,0.8 -0.44,0.72 -1.16,1.12l-0.77 0.38c-0.72,0.3 -1.87,0.34 -2.64,0.09l-0.23 -0.1c-0.91,-0.31 -1.74,-0.47 -2.56,-0.87l-2.03 -1.24c-0.03,-0.02 -0.07,-0.05 -0.1,-0.06 -0.03,-0.02 -0.07,-0.05 -0.1,-0.07l-2.28 -0.82c0,0.92 -0.17,2 0.03,2.91 0.21,0.95 0.06,-0.23 0.26,0.72 0.1,0.45 0.02,1.43 0.02,1.94 0.01,1.31 0.23,0.7 0.34,1.63 0.13,1.15 -0.03,4.7 0.28,5.61 0.12,0.34 0.14,-0.19 0.22,0.76l0.32 6.55c0.37,1.02 0.54,17.37 0.28,19.25 -0.1,0.72 -0.01,2.46 -0.15,3.12 -0.13,0.6 -0.3,0.7 -0.31,1.33 0,0.62 0.04,0.97 -0.05,1.58l-0.31 1.99c-0.25,0.76 -0.2,2.25 -0.77,3.97 -0.01,0.04 -0.03,0.08 -0.05,0.11 -0.22,0.69 -0.19,1.46 -0.44,2.18 -0.43,1.25 -0.51,2.48 -1.05,3.69 -0.02,0.04 -0.03,0.08 -0.05,0.12l-0.9 2.37c-0.07,0.23 -0.08,0.3 -0.23,0.59l-0.94 2c-0.02,0.03 -0.04,0.07 -0.06,0.11 -0.01,0.03 -0.03,0.07 -0.05,0.11l-1.36 2.57c-0.01,0.03 -0.04,0.07 -0.05,0.1l-1.08 1.86c-0.02,0.04 -0.05,0.08 -0.07,0.11l-0.24 0.4c-0.73,1.22 -1.19,1.37 -1.78,2.31l-2.74 3.15c-0.02,0.03 -0.05,0.07 -0.07,0.09l-0.31 0.35c-0.03,0.02 -0.07,0.05 -0.09,0.08 -0.11,0.09 -0.16,0.13 -0.27,0.22 -0.04,0.03 -0.14,0.12 -0.18,0.14 -0.25,0.19 -0.06,0.14 -0.42,0.24l0 0.32c0.56,0.15 0.59,0.33 1.02,0.62l2.01 1.42c0.04,0.03 0.15,0.12 0.19,0.15 1.06,0.76 2.04,1.52 2.91,2.48l1.17 1.12c0.03,0.04 0.12,0.14 0.16,0.17l0.89 1.4c0.5,0.95 0.99,1.82 0.98,2.94 0,0.77 0.1,1.78 -0.16,2.48l-1.47 2.45c-0.02,0.02 -0.06,0.06 -0.08,0.08l-0.69 0.46c-0.37,0.13 -0.26,0.1 -0.71,0.1 -0.07,0.59 -0.37,0.68 -0.81,1.16l-0.41 0.41c-0.5,0.39 -1.08,0.56 -1.73,0.56 -2.7,0 -3.36,-0.11 -5.38,-1.5l-1.95 -1.48c-0.02,-0.02 -0.06,-0.05 -0.09,-0.07l-0.69 -0.62c-0.05,-0.06 -0.05,-0.19 -0.73,-0.58 -0.41,-0.23 -0.11,0.02 -0.5,-0.31l-2.69 -2.22c-0.04,-0.03 -0.15,-0.12 -0.18,-0.15l-0.57 -0.41c-0.22,-0.14 -0.26,-0.15 -0.52,-0.3 -0.04,-0.02 -0.17,-0.09 -0.21,-0.11 -0.04,-0.02 -0.08,-0.04 -0.11,-0.06l-1.49 -0.64c-3.03,-0.99 -2.07,-0.46 -3.98,-0.02l-3.7 1.22c-0.05,0.02 -0.18,0.07 -0.23,0.09 -1.18,0.48 -1.83,0.52 -2.72,0.88 -1.08,0.43 -2.21,0.45 -3.3,0.79l-4.49 1.07c-0.67,0.08 -0.97,0.11 -1.64,0.16 -1.39,0.1 -0.28,0.17 -1.32,0.32 -0.93,0.13 -2.34,0.02 -3.14,0.29 -0.35,0.11 0.19,0.14 -0.76,0.22 -0.21,0.02 -0.61,-0.01 -0.83,-0.01 -0.73,-0.01 -1.04,0.06 -1.51,0.12 -1.17,0.16 -2.39,-0.02 -3.57,0.03 -1.45,0.07 -0.18,0.24 -1.45,0.35 -1.71,0.15 -3.53,-0.02 -5.24,-0.01 -0.64,0.01 -1.17,0.07 -1.69,-0.11 -1.19,-0.4 -3.65,-0.16 -4.9,-0.33 -0.58,-0.08 -1.17,-0.04 -1.76,-0.04l-1.37 -0.27c-0.54,-0.15 -2.52,-0.17 -3.21,-0.23 -1.09,-0.09 -0.57,-0.27 -1.46,-0.33 -0.66,-0.05 -0.87,-0.09 -1.49,-0.15 -0.2,-0.02 -0.24,0 -0.44,-0.05 -0.43,-0.09 -0.28,-0.09 -0.37,-0.12l-2.59 -0.51c-0.04,-0.02 -0.08,-0.03 -0.13,-0.05l-4.97 -1.24c-0.03,-0.02 -0.07,-0.04 -0.11,-0.05l-5.18 -1.69c-0.86,-0.42 0.67,0.3 -0.21,-0.11l-1.47 -0.5c-0.05,-0.02 -0.17,-0.09 -0.22,-0.11l-2.89 -1.36c-0.68,-0.3 -1.88,-0.51 -2.18,-1.25l-0.49 0c-0.16,0.39 -0.07,0.18 -0.38,0.44l-3.05 2.68c-0.02,0.02 -0.05,0.05 -0.08,0.08l-0.62 0.69c-0.02,0.02 -0.05,0.06 -0.07,0.09 -0.97,1.34 -2.21,2.61 -3.31,3.72l-0.25 0.25c-0.28,0.28 0,0.04 -0.33,0.31 -0.44,0.35 0.26,-0.2 -0.19,0.14l-0.19 0.14c-1.36,0.99 -0.12,0.36 -1.94,1.16 -0.04,0.02 -0.08,0.04 -0.12,0.06 -0.94,0.39 -2.84,0.38 -3.76,-0.05l-3.7 -2.68c-1.04,-0.98 -0.98,-2.12 -1.18,-2.75 -0.15,-0.45 0.16,-0.17 -0.3,-0.36l0 -0.81c0.46,-0.19 0.14,0.09 0.3,-0.36 0.18,-0.54 0.06,-1.15 0.26,-1.71 0.01,-0.03 0.03,-0.07 0.05,-0.11l0.14 -0.35c0.07,-0.21 0.07,-0.29 0.14,-0.51l1.21 -1.9c0.07,-0.11 0.16,-0.29 0.18,-0.31l0.65 -0.83c0.02,-0.02 0.05,-0.06 0.07,-0.09l2.17 -2.4c0.14,-0.12 0.25,-0.18 0.37,-0.29l2.54 -2.21c0.03,-0.01 0.07,-0.04 0.1,-0.06 0.26,-0.15 -0.19,0.03 0.33,-0.16l-0.65 -0.5c-0.02,-0.03 -0.05,-0.07 -0.07,-0.1 -0.02,-0.02 -0.04,-0.07 -0.06,-0.09 -0.27,-0.38 0.06,-0.04 -0.36,-0.47l-0.75 -0.72c-0.13,-0.13 -0.2,-0.22 -0.31,-0.34 -0.05,-0.05 -0.32,-0.33 -0.32,-0.33l-2.84 -3.87c-0.61,-0.67 -0.7,-1.08 -0.89,-1.4l-0.47 -0.84c-0.02,-0.03 -0.04,-0.07 -0.06,-0.11 -0.02,-0.04 -0.09,-0.16 -0.12,-0.2 -0.02,-0.03 -0.04,-0.07 -0.06,-0.1 -0.02,-0.03 -0.05,-0.07 -0.07,-0.1l-1.31 -2.44c-0.02,-0.04 -0.04,-0.08 -0.06,-0.11l-0.81 -1.97c-0.02,-0.03 -0.04,-0.07 -0.06,-0.11l-1.32 -3.42c-0.01,-0.04 -0.03,-0.08 -0.05,-0.12l-0.22 -0.59c-0.05,-0.18 -0.08,-0.37 -0.13,-0.53l-0.73 -2.05c-0.07,-0.25 -0.1,-0.31 -0.17,-0.48 -0.03,-0.06 -0.08,-0.16 -0.1,-0.22 -0.02,-0.04 -0.04,-0.08 -0.05,-0.12 -0.01,-0.04 -0.03,-0.09 -0.04,-0.13 -0.12,-0.42 -0.11,-0.84 -0.2,-1.27 -0.21,-1.04 -0.04,0.04 -0.35,-0.95l-0.96 -4.6c-0.16,-0.9 -0.22,-0.4 -0.32,-1.16 -0.06,-0.49 -0.1,-0.82 -0.13,-1.18 -0.11,-1.19 -0.31,-1.25 -0.36,-2.41 -0.09,-1.65 -0.5,-2.8 -0.49,-3.77l-0.19 -4.71c-0.17,-0.77 -0.03,-0.03 -0.18,-0.48 -0.36,-1.05 -0.12,-8.25 -0.12,-9.53 0,-1.84 -0.28,-8.12 0.22,-9.6 0.15,-0.46 0.12,-0.64 0.12,-1.19 -0.02,-2.02 0.16,-3.58 0.15,-5.41 0,-0.83 0.02,-1.98 0.22,-2.56 0.24,-0.72 0.11,-1.83 0.11,-2.67 -0.61,0.05 -0.43,0.06 -0.84,0.31l-1.01 0.62c-0.03,0.02 -0.07,0.04 -0.11,0.06l-0.85 0.45c-0.03,0.02 -0.07,0.05 -0.1,0.07 -0.02,0.02 -0.06,0.05 -0.09,0.07l-1.24 0.39c-0.04,0.02 -0.08,0.04 -0.12,0.05l-0.33 0.16c-0.04,0.01 -0.08,0.03 -0.12,0.04 -0.05,0.03 -2.76,0.51 -3.85,-0.1l-0.21 -0.12c-2.21,-1.3 -1.17,-3.67 -2.74,-3.8 -0.03,-0.27 -0.23,-0.87 -0.33,-1.63l0 -1.46c0.06,-0.45 0.19,-0.92 0.43,-1.39 0.39,-0.8 0.9,-1.31 0.93,-1.35 0.03,-0.03 0.05,-0.07 0.07,-0.1 0.02,-0.03 0.05,-0.07 0.07,-0.1l2.14 -1.78c0.03,-0.02 0.07,-0.04 0.1,-0.06 0.96,-0.69 1.45,-0.74 1.92,-1.03 0.03,-0.01 0.07,-0.04 0.1,-0.06 0.04,-0.03 0.15,-0.11 0.19,-0.14 0.24,-0.15 0.12,-0.11 0.43,-0.22l2.58 -0.69c0.04,-0.01 0.09,-0.03 0.12,-0.04l0.75 -0.24c0.14,-0.02 0.3,-0.02 0.45,-0.04 0.8,-0.07 1.31,-0.14 2.31,-0.14 0,-1.11 -0.2,-2.64 0.04,-3.73 0.1,-0.5 0.07,-0.21 0.13,-0.36 0.09,-0.26 0.04,0.3 0.15,-0.5l0.01 -20.6c0,-1.52 0.04,-2.77 0.14,-3.78 0.18,-2 -0.05,-4.18 0.01,-6.21 0.04,-1.26 0.31,-0.51 0.35,-1.77 0.04,-1.22 -0.18,-2.76 0.21,-3.89 0.01,-0.04 0.03,-0.08 0.04,-0.12 0.36,-1.26 -0.07,-4.31 0.35,-5.54 0.01,-0.05 0.08,-0.18 0.1,-0.23 0.35,-1.06 0.07,-2.46 0.31,-3.61 0.11,-0.56 0.26,-0.52 0.3,-1.34 0.02,-0.45 0.03,-0.52 0.08,-0.9l0.61 -2.98c0.25,-0.78 0.15,-1.61 0.4,-2.39l1.07 -4.81 -0.75 -0.48c-0.17,-0.08 -0.05,-0.03 -0.22,-0.12l-3.5 -2.05 -4.24 -5.41c-0.05,-0.12 -0.03,0.02 -0.15,-0.35l-0.47 -1.82c-0.5,-2.2 -0.23,-5.1 0.47,-7.3 0.13,-0.38 0.1,-0.23 0.15,-0.34l1.33 -2.77c0.01,-0.02 0.13,-0.16 0.21,-0.27 0.02,-0.03 0.05,-0.07 0.07,-0.1l2.14 -2.6c1.05,-1.14 2.31,-2.16 3.71,-2.83 0.03,-0.02 0.08,-0.04 0.11,-0.06l1.59 -0.7c0.22,-0.06 0.22,-0.06 0.37,-0.12l1.59 -0.54c1.32,-0.32 4.97,-0.31 6.32,0.06 0.44,0.12 0,0.02 0.49,0.17l3.93 1.46c0.96,0.42 0.52,0.93 1.69,0.93 0.25,0 0.25,-0.24 0.42,-0.4l1.6 -1.18c0.03,-0.01 0.07,-0.04 0.1,-0.06l1.6 -1.18c0.03,-0.02 0.07,-0.05 0.1,-0.06l1.41 -0.88c0.44,-0.32 -0.04,-0.07 0.51,-0.31l7.56 -3.4c0.45,-0.17 -0.23,0.07 0.23,-0.1l1.83 -0.62c2.4,-0.64 0.91,-0.56 3.04,-0.89l0.79 -0.19c0.03,-0.02 0.07,-0.04 0.11,-0.05l1.79 -0.34c0.85,-0.15 0.24,-0.08 0.62,-0.2 0.38,-0.12 0.22,-0.08 0.68,-0.13l1.82 -0.31c0.04,-0.01 0.08,-0.04 0.12,-0.05 0.04,-0.01 0.08,-0.03 0.12,-0.04l2.04 -0.41c1.31,-0.07 2.41,-0.1 3.51,-0.41 1.16,-0.33 8.69,-0.4 10.08,-0.4l9.64 0.17c0.63,0 2.87,0.08 3.41,0.19 0.96,0.2 -0.24,0.06 0.72,0.26l5.27 0.78c0.91,0.25 1.92,0.08 2.76,0.35l5.76 1.27c0.04,0.01 0.08,0.03 0.12,0.04 0.04,0.02 0.08,0.04 0.12,0.05l2.57 0.7c0.15,0.03 0.45,0.06 0.68,0.14l8.53 3.25c0.03,0.02 0.07,0.04 0.1,0.06 0.23,0.12 0.37,0.17 0.56,0.26 0.03,0.01 0.07,0.04 0.11,0.05l4.11 2.27c0.03,0.02 0.06,0.05 0.09,0.07l4.39 2.97c0.03,0.02 0.08,0.04 0.11,0.06l0.84 0.79c0.02,0.03 0.12,0.14 0.16,0.17l1.52 -0.77c0.04,-0.02 0.17,-0.08 0.22,-0.1l0.86 -0.44c0.31,-0.13 0.21,-0.06 0.51,-0.15 0.04,-0.02 0.09,-0.03 0.13,-0.04l2.33 -0.77c1.71,-0.31 4.2,-0.33 5.95,-0.09 1.09,0.15 1.7,0.26 2.6,0.67 0.28,0.14 -0.08,0.05 0.55,0.27 0.28,0.1 0.36,0.08 0.64,0.18l1.15 0.65c0.02,0.02 0.06,0.05 0.09,0.07l1.12 0.67c0.58,0.37 0.94,0.91 1.47,1.32 0.03,0.02 0.07,0.04 0.1,0.06 0.91,0.62 0.72,0.44 1.4,1.39 0.8,1.13 1.23,1.12 1.83,2.58l0.53 1.11c0.87,1.53 0.17,0.31 0.77,1.84 0.02,0.04 0.04,0.08 0.05,0.11 0.02,0.04 0.04,0.08 0.06,0.11 0.3,0.72 0.22,1.49 0.44,2.18l0.22 1.41c-0.01,0.44 0.04,1.26 -0.02,1.64l-0.7 2.89 -1.54 2.88 -2.76 2.8c-0.03,0.02 -0.07,0.04 -0.1,0.06l-1.99 1.28c-0.8,0.53 -1.03,0.44 -1.79,0.83 -0.04,0.02 -0.07,0.04 -0.11,0.06l-0.31 0.17c-0.23,0.11 -0.19,0.09 -0.5,0.16l0 1.14c0.54,0.22 0.26,0.47 0.47,1.17 0.13,0.43 -0.01,-0.16 0.12,0.36 0.18,0.69 0.11,1.04 0.24,1.73 0.2,1.12 0.09,-0.06 0.28,0.87 0.18,0.87 0.07,1.77 0.21,2.73 0.12,0.84 0.27,0.58 0.32,1.81 0.03,0.74 0.16,0.9 0.16,1.8 0,2.27 -0.01,0.92 0.29,2.32 0.23,1.08 0.03,4.39 0.03,5.54 0,0.83 0.18,1.38 0.14,1.93l-0.14 5.91c0,3.66 -0.2,2.1 -0.33,3.6 -0.17,1.98 0,4.3 -0.15,6.06 -0.1,1.11 -0.33,0.64 -0.35,1.62 -0.01,1.13 0.03,4.12 -0.31,5.08l-0.33 4.41c0.01,1.94 -0.35,1.93 -0.33,3.77 0.03,1.76 -0.32,1.62 -0.34,2.77 0,0.32 0.02,0.67 0.02,0.99l-0.17 5.73c0.71,0 1.44,-0.03 2.14,-0.02l3.55 0.71c0.03,0.02 0.08,0.04 0.11,0.05 0.12,0.05 0.23,0.09 0.35,0.14l3.82 1.59c1.33,0.92 1.2,1.37 1.97,1.45 0.08,0.73 0.98,1.3 1.47,1.97l0.13 0.2c0.18,0.32 0.2,0.47 0.2,0.92l0 0.02zm-127.79 93.3c0.21,-0.91 0.9,-2.54 1.28,-3.4 0.85,-1.93 2.15,-2.41 1.41,-3.05 -1.08,-0.94 -2.69,3.09 -3.01,3.9 -0.12,0.3 -0.19,0.52 -0.31,0.84 -0.07,0.17 -0.12,0.33 -0.2,0.46l-0.27 0.35c-1.15,-0.65 -1.97,-2.33 -1.68,-4.01 0.67,-3.84 6.18,-9.26 8.06,-9.91 0.59,0.34 1.37,1.17 2.06,1.74 0.54,0.45 1.37,1.08 2.13,1.64 0.82,0.6 1.51,1.1 2.23,1.53 0.46,0.28 1.99,1.1 2.24,1.5 -0.1,0.13 -1.48,1.18 -1.64,1.3 -1.29,1.04 -3.41,3.69 -4.45,4.87 -0.82,0.94 -1.89,2.11 -3.2,2.84 -2.12,1.19 -3.1,0.25 -4.65,-0.6zm113.74 -95.59l0.02 -3.2c4.94,-1.28 15.52,4.22 12.43,8.1 -1.6,0.05 -3.05,-2.19 -3.11,-0.63 -0.02,0.44 -0.08,0.14 0.11,0.47 0.34,0.59 1.59,1.08 2.11,1.33 0.02,4.38 -5.43,2.09 -7.19,1.01 -0.58,-0.35 -1.15,-0.77 -1.71,-1.07 -2,-1.09 -2.66,0.22 -2.66,-6.01zm-123.79 4.78c-0.7,0.49 -1.61,1 -2.33,1.44 -2.35,1.42 -6.98,3.43 -7.38,-0.89 0.38,-0.23 1.69,-0.7 2.11,-1.3 0.33,-0.49 0.33,-0.5 -0.04,-0.88 -0.54,-0.49 -1.06,0.42 -1.89,0.81 -1.87,0.87 -2.69,-1.87 0.53,-4.74 2.08,-1.84 5.91,-3.26 9.5,-3.25l-0.5 8.81zm124.97 -43.22c-0.53,13 -2.33,25.24 -2.33,38.44 -0.01,22.47 7.34,51.55 -5,72.2 -4.74,7.92 -12.75,13.92 -22.95,17.78 -20.37,7.7 -50.39,6.61 -68.37,-2.98 -8.97,-4.79 -15.5,-11.13 -19.82,-20.92 -4.52,-10.23 -6.2,-21.8 -6.38,-34.51 -0.2,-13.3 1.43,-25.93 1.7,-38.93 0.39,-18.72 -0.67,-39.25 3.47,-57.66 1.11,-4.92 2.98,-11.44 5.13,-15.3 4.83,-8.7 11.87,-15.07 21.82,-18.9 9.15,-3.52 25.79,-5.57 35.77,-4.36 6.32,0.76 11.63,1.3 17.63,2.7 5.41,1.28 10.57,3.1 15,5.43 21.3,11.22 25.26,33.71 24.33,57.01zm-14.31 -51.52c0.65,-0.84 3.96,-1.89 5.16,-2.11 6.05,-1.1 11.7,1.75 14.7,6.65 3.18,5.21 2.92,11.49 -2.11,15.48 -0.88,0.7 -3.66,2.43 -4.8,2.49 -0.19,-0.35 -2.23,-6.91 -2.24,-6.97 1.34,-1.08 5.44,-2.8 3.21,-7.19 -0.66,-1.29 -1.72,-2.34 -3.31,-2.55 -2.27,-0.3 -3.22,0.8 -4.69,1.03 -0.93,-1.4 -3.04,-3.89 -4.29,-5.16 -0.46,-0.48 -1.32,-1.18 -1.63,-1.67zm-97.29 2.99c-1.65,-0.06 -4.22,-1.22 -6.07,2.06 -1.85,3.27 -0.14,4.59 1,6.07l-1.6 4.47c-0.53,1.53 -0.92,3 -1.44,4.61 -1.06,-0.03 -3.88,-1.88 -4.57,-2.45 -1.44,-1.19 -2.46,-2.41 -3.25,-4.11 -4,-8.55 4.32,-20.87 15.75,-18.18 1.28,0.3 4.12,1.4 5.04,2.25l-3.63 3.85c-0.36,0.39 -0.82,1.05 -1.23,1.43z"/>
   <path class="fil3" d="M112.38 194.49c3.34,1.31 3.96,1.81 7.01,4.43 2.39,2.05 6.86,6.34 9.57,3.33 1.43,-1.59 -0.45,-3.27 -1.94,-5.75 -0.3,-0.5 -0.83,-2.16 0.44,-1.45 0.2,0.1 0.9,1.42 1.17,1.81 1.78,2.64 0.91,1.42 2.06,3.84 1.32,-0.24 1.82,-3.01 1.47,-4.45 -1.01,-4.24 -9.04,-8.95 -9.16,-8.96 -0.43,0.14 -2.18,1.55 -2.65,1.92 -2.58,2.07 -5.19,3.22 -7.79,4.65 -0.67,0.37 -0.26,-0.03 -0.56,0.46l0.38 0.17zm-90.02 6.11c1.55,0.85 2.53,1.79 4.65,0.6 1.31,-0.73 2.38,-1.9 3.2,-2.84 1.04,-1.18 3.16,-3.83 4.45,-4.87 0.16,-0.12 1.54,-1.17 1.64,-1.3 -0.25,-0.4 -1.78,-1.22 -2.24,-1.5 -0.72,-0.43 -1.41,-0.93 -2.23,-1.53 -0.76,-0.56 -1.59,-1.19 -2.13,-1.64 -0.69,-0.57 -1.47,-1.4 -2.06,-1.74 -1.88,0.65 -7.39,6.07 -8.06,9.91 -0.29,1.68 0.53,3.36 1.68,4.01l0.27 -0.35c0.08,-0.13 0.13,-0.29 0.2,-0.46 0.12,-0.32 0.19,-0.54 0.31,-0.84 0.32,-0.81 1.93,-4.84 3.01,-3.9 0.74,0.64 -0.56,1.12 -1.41,3.05 -0.38,0.86 -1.07,2.49 -1.28,3.4zm113.75 -95.54c0,6.22 0.66,4.92 2.66,6.01 0.56,0.3 1.13,0.71 1.71,1.07 1.77,1.08 7.22,3.37 7.2,-1.02 -0.52,-0.25 -1.78,-0.74 -2.12,-1.32 -0.18,-0.33 -0.13,-0.03 -0.11,-0.47 0.06,-1.56 1.51,0.67 3.11,0.63 3.09,-3.88 -7.49,-9.38 -12.42,-8.1l-0.03 3.2zm-123.3 -4.08c-3.59,-0.01 -7.42,1.41 -9.5,3.25 -3.22,2.87 -2.4,5.61 -0.53,4.74 0.83,-0.39 1.35,-1.3 1.89,-0.81 0.37,0.38 0.37,0.39 0.04,0.88 -0.42,0.6 -1.73,1.07 -2.11,1.3 0.4,4.32 5.03,2.31 7.38,0.89 0.72,-0.44 1.63,-0.95 2.33,-1.44l0.5 -8.81zm71.02 -51.1c-0.78,2.12 -6.45,2.31 -8.1,2.17 -1.82,-0.15 -6.67,-1.31 -7.13,-2.97 -1.11,-0.02 -2.18,0.88 -3.04,1.43 -2.49,1.62 -6.12,4.76 -3.87,8.19 3.48,5.27 7.95,0.29 12.76,-0.24 5.85,-0.65 11.15,4.75 14.46,1.01 2.8,-3.16 0.61,-8.4 -3.38,-9.89 -1.6,-0.61 -0.9,-0.17 -1.7,0.3z"/>
  </g>
 </g>
</svg>
